<?xml version="1.0" encoding="UTF-8"?>
<svg width="375px" height="616px" viewBox="0 0 375 616" version="1.1" xmlns="http://www.w3.org/2000/svg" xmlns:xlink="http://www.w3.org/1999/xlink">
    <title>背景-小象</title>
    <defs>
        <linearGradient x1="48.3563723%" y1="26.8266044%" x2="50%" y2="97.4348651%" id="linearGradient-1">
            <stop stop-color="#FE9B0E" offset="0%"></stop>
            <stop stop-color="#FFFFFF" offset="100%"></stop>
        </linearGradient>
        <rect id="path-2" x="3.44828049e-06" y="-1.43153325e-05" width="375" height="616"></rect>
    </defs>
    <g id="小程序" stroke="none" stroke-width="1" fill="none" fill-rule="evenodd">
        <g id="背景-小象" transform="translate(-0.000003, 0.000014)">
            <mask id="mask-3" fill="white">
                <use xlink:href="#path-2"></use>
            </mask>
            <use id="蒙版" fill="url(#linearGradient-1)" xlink:href="#path-2"></use>
            <path d="M29.5903968,-44 C36.212541,-44 41.5903968,-38.7467811 41.5903968,-32.2781116 C41.5903968,-27.4878005 38.5585107,-23.2256763 33.9915612,-21.4592999 L53.4993309,22.0012549 L59.7508408,22.0012549 L91.5134795,-8.32229027 C89.6343582,-10.0389212 88.5688351,-12.4041025 88.5688351,-14.9139844 C88.5688351,-19.8805925 92.602227,-23.9139844 97.5688351,-23.9139844 C102.535443,-23.9139844 106.568835,-19.8805925 106.568835,-14.9139844 C106.568835,-9.94737632 102.535443,-5.9139844 97.5688351,-5.9139844 C97.4106629,-5.9139844 97.2524907,-5.94561885 97.0943184,-5.96143607 L97.0943184,-5.96143607 L96.582,-6.021 L92.1115977,23.8577629 L92.0742206,40.8134821 C101.784568,45.7456684 110.813416,51.7870635 118.985983,58.7664267 C132.838243,50.6353685 149.641054,44.4200839 167.965417,45.7560643 C199.669545,48.0675277 217.564709,59.0872195 227.716609,69.6497708 C239.476167,81.3650265 244.988468,96.4449045 246.282794,112.001872 C249.570699,150.879285 226.523554,192.776988 208.714009,192.776988 C206.933561,192.776988 205.293765,192.990016 203.775837,193.389393 C182.335111,201.534279 194.524952,264.113383 154.470394,264.113383 C137.046096,264.113383 128.943759,263.174756 118.569507,244.562422 C94.6440652,258.450637 63.4518721,264.882174 29.3365724,264.882174 C-13.9484399,264.882174 -52.5277833,254.528572 -77.5352725,231.730038 C-91.5381605,263.042675 -99.0435234,264.385217 -119.882324,264.385217 C-159.970154,264.385217 -147.726753,201.702103 -169.239678,193.639726 C-170.737834,193.254942 -172.353087,193.048822 -174.104432,193.048822 C-189.64528,193.048822 -209.174322,161.145638 -211.713258,127.185004 C-213.449287,104.400718 -207.534228,80.669723 -187.607659,65.0413972 C-176.869643,56.2028252 -159.951246,48.0553776 -133.205288,46.1054011 C-108.282749,44.2883653 -86.1747877,56.4397253 -70.4675327,68.3877236 C-59.8689505,57.2573335 -47.3515749,47.903984 -33.4332298,40.8298195 L-33.4334298,24.2263343 L-37.895,-5.773 L-38.8394869,-5.66402292 C-38.9449351,-5.6534781 -39.0503832,-5.63590341 -39.1558314,-5.62535859 L-39.3140036,-5.61657125 C-44.2806117,-5.61657125 -48.3140036,-9.64996316 -48.3140036,-14.6165712 C-48.3140036,-19.5831793 -44.2806117,-23.6165712 -39.3140036,-23.6165712 C-34.3632128,-23.6165712 -30.3298209,-19.5831793 -30.3140036,-14.6165712 C-30.3140036,-12.2702539 -31.2451753,-10.0503921 -32.9017064,-8.36861015 L-1.07267284,22.0012549 L5.17883703,22.0012549 L24.7651519,-21.6323522 C20.4355442,-23.4928761 17.5903968,-27.6376663 17.5903968,-32.2781116 C17.5903968,-38.7467811 22.9682527,-44 29.5903968,-44 Z" id="形状结合" fill-opacity="0.1" fill="#FFFFFF" mask="url(#mask-3)" transform="translate(17.299405, 110.441087) rotate(25.000000) translate(-17.299405, -110.441087) "></path>
            <path d="M465.339009,-29.0000143 C471.409307,-29.0000143 476.339009,-24.1845637 476.339009,-18.2549499 C476.339009,-13.8835844 473.584727,-9.99204389 469.429819,-8.35969564 L486.664831,29.9330279 L492.2775,29.9330279 L520.975294,2.61121183 C519.225663,1.07694512 518.230202,-1.07508717 518.230202,-3.36230545 C518.230202,-7.77706819 521.81544,-11.3623054 526.230202,-11.3623054 C530.644965,-11.3623054 534.230202,-7.77706819 534.230202,-3.36230545 C534.230202,1.0524573 530.644965,4.63769455 526.230202,4.63769455 C526.089605,4.63769455 525.949007,4.60957505 525.80841,4.59551529 L525.80841,4.59551529 L525.390003,4.54698568 L521.331318,31.5952501 L521.298303,46.824139 C521.298303,47.0873507 521.286701,47.3486164 521.263854,47.6076688 C529.841536,51.9524456 537.828489,57.2552167 545.077832,63.3714457 C557.655277,55.8869483 572.970482,50.1162929 589.69032,51.3392406 C613.450701,53.0771581 628.610921,60.2560891 638.310292,68.1171204 C672.329249,94.4807033 661.569427,146.776686 644.167546,170.827523 C638.422321,178.958459 631.907348,184.020637 626.02705,184.020637 C600.445272,184.020637 615.702155,248.357816 577.090476,248.357816 C561.481254,248.357816 554.172859,247.524434 544.903319,231.088128 C523.378929,243.464737 495.384085,249.199503 464.778418,249.199503 C425.573668,249.199503 390.652935,239.789508 368.129477,219.059009 C355.56288,247.017546 348.787249,248.218655 330.048069,248.218655 C295.970863,248.218655 303.852738,198.105401 288.587999,186.335015 C286.442461,185.261599 283.992809,184.657039 281.143444,184.657039 C265.38105,184.657039 245.066332,148.29102 247.147932,113.846182 C248.056877,96.8581278 254.402424,80.2897492 269.435472,68.756533 C279.117924,60.738908 294.39144,53.335152 318.571911,51.5665075 C341.162629,49.9141432 361.189105,61.0290147 375.367517,71.8919885 C384.913334,62.0076763 396.155128,53.7076087 408.63652,47.4340724 C408.622739,47.2329838 408.61571,47.0291614 408.61571,46.824139 L408.61571,46.824139 L408.61571,31.9252501 L404.687003,5.58098568 L403.591992,5.70706347 C403.49826,5.71643664 403.404528,5.73205859 403.310796,5.74143176 L403.170199,5.74924273 C398.755436,5.74924273 395.170199,2.16400547 395.170199,-2.25075727 C395.170199,-6.66552001 398.755436,-10.2507573 403.170199,-10.2507573 C407.570902,-10.2507573 411.156139,-6.66552001 411.170199,-2.25075727 C411.170199,-0.351824101 410.484035,1.45392625 409.24979,2.89032465 L437.669528,29.9330279 L443.282197,29.9330279 L460.635008,-8.62155965 C456.824474,-10.3828062 454.339009,-14.1023808 454.339009,-18.2549499 C454.339009,-24.1845637 459.26871,-29.0000143 465.339009,-29.0000143 Z" id="形状结合" fill-opacity="0.1" fill="#FFFFFF" mask="url(#mask-3)" transform="translate(453.782528, 110.099744) rotate(25.000000) translate(-453.782528, -110.099744) "></path>
        </g>
    </g>
</svg>