<?xml version="1.0" encoding="UTF-8"?>
<svg width="375px" height="750px" viewBox="0 0 375 750" version="1.1" xmlns="http://www.w3.org/2000/svg" xmlns:xlink="http://www.w3.org/1999/xlink">
    <title>启动界面-4</title>
    <defs>
        <rect id="path-1" x="0" y="0" width="375" height="812"></rect>
        <path d="M0.374905269,17.097703 C12.1418609,5.07585723 24.1386116,-0.575562452 36.3651572,0.143443967 C89.0254966,3.24024033 67.6716857,62.7105236 53.7545156,62.7105236 C41.5250048,62.7105236 48.8186422,93.5479506 30.3601151,93.5479506 C19.6238611,93.5479506 17.1022002,92.7210633 8.18383762,69.982819 C2.23826257,54.8239894 -0.364714883,37.1956174 0.374905269,17.097703 Z" id="path-3"></path>
        <path d="M0.374905269,17.097703 C12.1418609,5.07585723 24.1386116,-0.575562452 36.3651572,0.143443967 C89.0254966,3.24024033 67.6716857,62.7105236 53.7545156,62.7105236 C41.5250048,62.7105236 48.8186422,93.5479506 30.3601151,93.5479506 C19.6238611,93.5479506 17.1022002,92.7210633 8.18383762,69.982819 C2.23826257,54.8239894 -0.364714883,37.1956174 0.374905269,17.097703 Z" id="path-5"></path>
        <path d="M1.16782901,2.15589941 C5.69659724,-1.9283813 11.2903325,1.32186021 14.9456528,5.86113699 C23.7089184,16.7435999 26.8013923,30.7158655 26.8648194,33.9544805 C27.1317108,47.5820683 8.57385161,48.6991241 7.86365475,38.6110557 C7.12632829,28.137622 -3.26415823,6.15289796 1.16782901,2.15589941 Z" id="path-7"></path>
        <path d="M1.09615546,1.86585465 C5.62492369,-2.21842607 11.2186589,1.03181544 14.8739793,5.57109222 C23.6372449,16.4535551 26.7297188,30.4258207 26.7931459,33.6644357 C27.0600372,47.2920236 8.50217806,48.4090793 7.7919812,38.321011 C7.05465473,27.8475772 -3.33583178,5.86285319 1.09615546,1.86585465 Z" id="path-9"></path>
        <path d="M1.16782901,2.15589941 C5.69659724,-1.9283813 11.2903325,1.32186021 14.9456528,5.86113699 C23.7089184,16.7435999 26.8013923,30.7158655 26.8648194,33.9544805 C27.1317108,47.5820683 8.57385161,48.6991241 7.86365475,38.6110557 C7.12632829,28.137622 -3.26415823,6.15289796 1.16782901,2.15589941 Z" id="path-11"></path>
        <path d="M1.09615546,1.86585465 C5.62492369,-2.21842607 11.2186589,1.03181544 14.8739793,5.57109222 C23.6372449,16.4535551 26.7297188,30.4258207 26.7931459,33.6644357 C27.0600372,47.2920236 8.50217806,48.4090793 7.7919812,38.321011 C7.05465473,27.8475772 -3.33583178,5.86285319 1.09615546,1.86585465 Z" id="path-13"></path>
        <path d="M0.697849077,34.0998493 C5.0851994,42.2180723 24.9375398,42.2180723 29.0572232,33.0808017 C30.5119755,29.8542273 28.2413612,18.8272934 22.2453803,1.44815377e-14 L6.0560965,1.44815377e-14 C0.648177221,19.3364075 -1.13790525,30.7030239 0.697849077,34.0998493 Z" id="path-15"></path>
        <path d="M0.697849077,34.0998493 C5.0851994,42.2180723 24.9375398,42.2180723 29.0572232,33.0808017 C30.5119755,29.8542273 28.2413612,18.8272934 22.2453803,1.44815377e-14 L6.0560965,1.44815377e-14 C0.648177221,19.3364075 -1.13790525,30.7030239 0.697849077,34.0998493 Z" id="path-17"></path>
        <linearGradient x1="50%" y1="0%" x2="50%" y2="100%" id="linearGradient-19">
            <stop stop-color="#FFFFFF" stop-opacity="0.269613199" offset="0%"></stop>
            <stop stop-color="#FFFFFF" stop-opacity="0.551655376" offset="100%"></stop>
        </linearGradient>
        <path d="M13.9104,16.1504 L13.9104,15.128 L9.6192,15.128 L9.6192,9.0944 L13.3632,9.0944 L13.3632,8.0864 L9.6192,8.0864 L9.6192,3.4352 L8.5536,3.4352 L8.5536,15.128 L5.4288,15.128 L5.4288,16.1504 L13.9104,16.1504 Z M4.0896,6.5168 L4.7952,5.7968 C4.1328,5.048 3.312,4.2992 2.3328,3.5504 L1.6128,4.256 C2.6496,5.048 3.4848,5.7968 4.0896,6.5168 Z M2.8224,16.136 C3.8304,15.488 4.7952,14.7392 5.688,13.904 L5.4144,12.8096 C4.824,13.3712 4.2768,13.8608 3.7584,14.2784 L3.7584,7.8416 L0.648,7.8416 L0.648,8.8352 L2.7648,8.8352 L2.7648,14.6384 C2.7648,14.84 2.6496,15.0416 2.4336,15.2144 L2.8224,16.136 Z M27.072,16.6256 L27.8208,15.8912 C26.3088,14.624 24.4512,13.3424 22.248,12.0608 C22.3776,11.7872 22.4928,11.4992 22.5936,11.1968 L27.8928,11.1968 L27.8928,10.1888 L22.8672,10.1888 C23.0256,9.4688 23.1264,8.6912 23.1552,7.8272 L23.1552,3.464 L22.104,3.464 L22.104,7.8272 C22.0752,8.6624 21.9744,9.4544 21.8016,10.1888 L15.3936,10.1888 L15.3936,11.1968 L21.4848,11.1968 C21.2544,11.7728 20.9664,12.3056 20.6208,12.7952 C19.6416,14.0192 17.8848,14.9984 15.3792,15.7472 L15.9408,16.6256 C18.4464,15.8768 20.2464,14.8544 21.3552,13.5296 C21.5136,13.3136 21.672,13.0832 21.816,12.8528 C24.0336,14.1776 25.776,15.4448 27.072,16.6256 Z M20.376,6.704 L20.9232,5.8688 C20.088,5.2352 19.152,4.688 18.144,4.2272 L17.5968,5.0336 C18.5472,5.4368 19.4688,5.984 20.376,6.704 Z M19.2528,9.2816 L19.8144,8.432 C18.8352,7.6832 17.7408,7.064 16.56,6.5456 L16.0128,7.352 C17.1216,7.8272 18.2016,8.4752 19.2528,9.2816 Z M36.5904,16.6688 C36.9072,16.6688 37.1952,16.6544 37.4544,16.6256 C38.1744,16.5392 38.6784,16.3232 38.952,16.0064 C39.2688,15.6176 39.4272,14.9264 39.4272,13.9472 C39.3984,13.4 39.312,12.8816 39.168,12.3632 C39.3552,12.2768 39.5424,12.1904 39.744,12.104 C40.2048,13.5296 40.9536,14.8256 42.0048,16.0064 L42.6816,15.1568 C41.6448,14.1488 40.9248,12.9968 40.5216,11.7008 C41.0688,11.3984 41.5584,11.0528 42.0048,10.664 L41.328,9.8864 C40.6656,10.52 39.8304,11.0528 38.8512,11.4848 C38.5344,10.7648 38.0592,10.1024 37.44,9.4688 L37.4544,9.4544 L41.76,9.4544 L41.76,6.3152 L39.0816,6.3152 C39.456,5.9552 39.8304,5.5376 40.2048,5.048 L40.2048,4.3712 L36.5904,4.3712 C36.792,4.1264 36.9792,3.8672 37.1808,3.5792 L36.1152,3.3344 C35.2224,4.616 34.056,5.6528 32.6448,6.4304 L33.2784,7.208 C33.4512,7.0928 33.624,6.9776 33.8256,6.8624 L33.8256,9.4544 L36.1872,9.4544 C35.4384,10.16 34.3872,10.664 33.0192,10.952 L33.408,11.816 C34.8192,11.4992 35.9712,10.9376 36.8352,10.1456 C37.0368,10.376 37.2384,10.6208 37.4112,10.88 C36.3744,11.7728 34.9056,12.5072 33.0048,13.0832 L33.5088,13.9328 C35.3232,13.328 36.7632,12.536 37.8288,11.5856 C37.9584,11.8592 38.0736,12.1616 38.1744,12.4784 C36.936,13.6304 35.208,14.5808 32.9616,15.3008 L33.48,16.1936 C35.496,15.4736 37.1232,14.5376 38.3616,13.4144 C38.376,13.5872 38.3904,13.76 38.3904,13.9472 C38.3904,14.6384 38.2896,15.0992 38.1168,15.3296 C37.9152,15.56 37.656,15.6752 37.3392,15.704 C37.0512,15.7184 36.7056,15.7328 36.288,15.7328 L36.5904,16.6688 Z M32.0832,16.6256 L32.0832,6.6608 C32.5152,5.768 32.8896,4.8176 33.1776,3.824 L32.2128,3.3632 C31.608,5.5808 30.6576,7.5536 29.3328,9.2672 L29.664,10.3616 C30.1536,9.7712 30.6144,9.152 31.032,8.5184 L31.032,16.6256 L32.0832,16.6256 Z M37.7712,6.3152 L34.5888,6.3152 C35.0208,5.9696 35.4528,5.5952 35.8704,5.1776 L38.9952,5.1776 C38.592,5.5808 38.1888,5.9696 37.7712,6.3152 Z M40.752,8.6048 L37.9728,8.6048 C38.1744,8.1728 38.3472,7.6832 38.4624,7.1648 L40.752,7.1648 L40.752,8.6048 Z M36.8784,8.6048 L34.8336,8.6048 L34.8336,7.1648 L37.4544,7.1648 C37.3392,7.6832 37.1376,8.1584 36.8784,8.6048 Z M48.24,16.6112 L48.24,13.5296 L53.9568,13.5296 L53.9568,15.1712 C53.9568,15.5168 53.7696,15.6896 53.3952,15.6896 C52.92,15.6896 52.4016,15.6608 51.8544,15.632 L52.1136,16.5824 L53.7264,16.5824 C54.5328,16.5536 54.936,16.1936 54.936,15.488 L54.936,7.712 L48.2544,7.712 C48.6,7.1792 48.9024,6.6176 49.1904,6.0416 L56.7792,6.0416 L56.7792,5.0336 L49.6224,5.0336 C49.824,4.5296 49.9968,4.0112 50.1696,3.4784 L49.1184,3.3488 C48.9456,3.9104 48.7296,4.472 48.4848,5.0336 L44.1936,5.0336 L44.1936,6.0416 L48.0096,6.0416 C47.016,7.8992 45.6192,9.5408 43.8048,10.9808 L44.4816,11.8592 C45.5184,11.024 46.4544,10.088 47.2608,9.08 L47.2608,16.6112 L48.24,16.6112 Z M53.9568,10.1888 L48.24,10.1888 L48.24,8.6192 L53.9568,8.6192 L53.9568,10.1888 Z M53.9568,12.6224 L48.24,12.6224 L48.24,11.096 L53.9568,11.096 L53.9568,12.6224 Z M58.8384,16.7264 C59.1264,15.8912 59.3712,14.984 59.544,14.0048 C60.12,14.8976 60.7968,15.5168 61.56,15.8768 C62.424,16.28 64.6128,16.4816 68.112,16.4816 L71.0928,16.4816 L71.28,15.4736 C70.5312,15.5024 69.3936,15.5168 67.8816,15.5312 C64.8864,15.5312 62.9712,15.3872 62.136,15.0992 C62.0208,15.056 61.8912,14.9984 61.7616,14.9408 L61.7616,12.2768 L63.2016,12.2768 L63.2016,11.384 L61.7616,11.384 L61.7616,9.368 L63.2448,9.368 L63.2448,8.4176 L61.3872,8.4176 L61.3872,6.3152 L62.9712,6.3152 L62.9712,5.3792 L61.3872,5.3792 L61.3872,3.4352 L60.3936,3.4352 L60.3936,5.3792 L58.7088,5.3792 L58.7088,6.3152 L60.3936,6.3152 L60.3936,8.4176 L58.4928,8.4176 L58.4928,9.368 L60.8112,9.368 L60.8112,14.2496 C60.408,13.8752 60.048,13.4 59.7168,12.7952 C59.8032,12.032 59.8608,11.24 59.8896,10.4048 L59.0256,10.304 C58.968,12.4352 58.6512,14.3504 58.0896,16.064 L58.8384,16.7264 Z M67.1472,15.0128 L67.1472,12.7232 C67.3632,12.6368 67.5936,12.5504 67.824,12.4496 L67.824,11.528 L67.1472,11.8304 L67.1472,4.8896 L67.7952,4.8896 L67.7952,3.9824 L63.0144,3.9824 L63.0144,4.8896 L63.792,4.8896 L63.792,12.9392 C63.4464,13.0256 63.1008,13.0976 62.7408,13.1696 L62.9568,14.0624 C64.08,13.7744 65.1744,13.4432 66.2256,13.0688 L66.2256,15.0128 L67.1472,15.0128 Z M66.2256,6.848 L64.7136,6.848 L64.7136,4.8896 L66.2256,4.8896 L66.2256,6.848 Z M67.7952,14.6672 C68.5296,13.8896 69.1488,13.0112 69.6528,12.0032 C69.9696,12.8096 70.272,13.6736 70.5744,14.5664 L71.352,14.2064 C70.9776,13.0832 70.5744,11.9744 70.1424,10.88 C70.704,9.3824 71.0208,7.6688 71.1072,5.7248 L71.1072,5.0192 L67.7232,5.0192 L67.7232,5.9264 L70.2,5.9264 C70.1136,7.2512 69.912,8.4752 69.5952,9.5984 C69.2208,8.7344 68.8176,7.8992 68.3856,7.0784 L67.5792,7.352 C68.1264,8.4176 68.6592,9.5696 69.1776,10.808 C68.688,12.0176 68.04,13.0688 67.2048,13.976 L67.7952,14.6672 Z M66.2256,9.5264 L64.7136,9.5264 L64.7136,7.6976 L66.2256,7.6976 L66.2256,9.5264 Z M64.7136,12.6944 L64.7136,10.376 L66.2256,10.376 L66.2256,12.1904 C65.736,12.3632 65.232,12.536 64.7136,12.6944 Z M85.6656,10.4336 L85.6656,9.3968 L72.72,9.3968 L72.72,10.4336 L85.6656,10.4336 Z M98.4672,12.2912 L98.4672,7.6688 L93.8736,7.6688 L93.8736,5.84 L99.4608,5.84 L99.4608,4.8608 L93.8736,4.8608 L93.8736,3.464 L92.8512,3.464 L92.8512,7.6688 L88.9344,7.6688 L88.9344,12.2912 L98.4672,12.2912 Z M97.4304,11.3264 L89.9712,11.3264 L89.9712,8.648 L97.4304,8.648 L97.4304,11.3264 Z M99.2448,16.6688 L100.1088,16.064 C99.6192,15.1712 98.928,14.12 98.0064,12.9104 L97.1712,13.4432 C98.0496,14.624 98.7408,15.6896 99.2448,16.6688 Z M87.8976,16.5968 C88.6176,15.6752 89.2368,14.5952 89.784,13.3424 L88.9056,12.9248 C88.3872,14.1056 87.768,15.128 87.048,15.9776 L87.8976,16.5968 Z M95.1552,16.64 L96.1776,16.4096 C95.8608,15.2576 95.4864,14.1776 95.0544,13.1984 L94.0752,13.4 C94.5072,14.336 94.8672,15.416 95.1552,16.64 Z M91.7856,16.6688 L92.8224,16.4384 C92.592,15.3296 92.3328,14.2928 92.0448,13.3424 L91.08,13.544 C91.3536,14.4512 91.584,15.488 91.7856,16.6688 Z" id="path-20"></path>
    </defs>
    <g id="小程序" stroke="none" stroke-width="1" fill="none" fill-rule="evenodd">
        <g id="启动界面-4" transform="translate(0.000000, -62.000000)">
            <mask id="mask-2" fill="white">
                <use xlink:href="#path-1"></use>
            </mask>
            <g id="蒙版"></g>
            <g mask="url(#mask-2)">
                <g transform="translate(-82.000000, 62.000000)">
                    <g id="编组" stroke-width="1" fill="none" fill-rule="evenodd" transform="translate(241.000000, 150.000000)">
                        <g id="小象" transform="translate(141.250000, 143.433013) rotate(-30.000000) translate(-141.250000, -143.433013) translate(41.250000, 35.933013)">
                            <g id="编组" transform="translate(-0.000606, 0.000000)">
                                <g id="耳朵" transform="translate(128.577926, 38.723810)">
                                    <path d="M0.374905269,17.5448598 C12.1418609,5.52301401 24.1386116,-0.128405664 36.3651572,0.590600754 C89.0254966,3.68739711 67.6716857,63.1576804 53.7545156,63.1576804 C41.5250048,63.1576804 44.7251713,86.5195708 30.4433219,86.5195708 C19.7070679,86.5195708 15.3092784,82.8485245 8.18383762,70.4299757 C3.43354379,62.1509432 0.830566345,44.5225712 0.374905269,17.5448598 Z" id="路径-12" fill="#FFDC74" fill-rule="nonzero"></path>
                                    <g id="Clipped" transform="translate(0.000000, 0.447157)">
                                        <mask id="mask-4" fill="white">
                                            <use xlink:href="#path-3"></use>
                                        </mask>
                                        <g id="path-1"></g>
                                        <path d="M-1.48678908,35.6252613 C9.37110542,23.5772365 20.2321727,15.447815 31.0964128,11.2369967 C42.7528034,6.71915262 62.2477731,15.5420712 67.3260995,17.8075809 C65.6856203,13.9033813 59.7022798,1.26749609 36.3093033,-0.431499044 C18.9952233,-1.68899347 4.8268388,12.6054859 0.252162861,17.0679956 C-3.48030825,21.5593009 -4.0599589,27.7450561 -1.48678908,35.6252613 Z" id="路径" fill="#FFC822" fill-rule="nonzero" mask="url(#mask-4)"></path>
                                    </g>
                                </g>
                                <g id="耳朵" transform="translate(35.923288, 86.223810) scale(-1, 1) translate(-35.923288, -86.223810) translate(0.423288, 38.723810)">
                                    <path d="M0.374905269,17.5448598 C12.1418609,5.52301401 24.1386116,-0.128405664 36.3651572,0.590600754 C89.0254966,3.68739711 67.6716857,63.1576804 53.7545156,63.1576804 C41.5250048,63.1576804 44.7251713,86.5195708 30.4433219,86.5195708 C19.7070679,86.5195708 15.3092784,82.8485245 8.18383762,70.4299757 C3.43354379,62.1509432 0.830566345,44.5225712 0.374905269,17.5448598 Z" id="路径-12" fill="#FFDC74" fill-rule="nonzero"></path>
                                    <g id="Clipped" transform="translate(0.000000, 0.447157)">
                                        <mask id="mask-6" fill="white">
                                            <use xlink:href="#path-5"></use>
                                        </mask>
                                        <g id="path-3"></g>
                                        <path d="M-1.48678908,35.6252613 C9.37110542,23.5772365 20.2321727,15.447815 31.0964128,11.2369967 C42.7528034,6.71915262 62.2477731,15.5420712 67.3260995,17.8075809 C65.6856203,13.9033813 59.7022798,1.26749609 36.3093033,-0.431499044 C18.9952233,-1.68899347 4.8268388,12.6054859 0.252162861,17.0679956 C-3.48030825,21.5593009 -4.0599589,27.7450561 -1.48678908,35.6252613 Z" id="路径" fill="#FFC822" fill-rule="nonzero" mask="url(#mask-6)"></path>
                                    </g>
                                </g>
                                <g id="四肢" transform="translate(30.108247, 112.300396)">
                                    <g id="手臂" transform="translate(22.914176, 27.012017) rotate(155.000000) translate(-22.914176, -27.012017) translate(9.414176, 4.012017)">
                                        <g id="蒙版" fill="#FFC61A" fill-rule="nonzero">
                                            <path d="M1.16782901,2.15589941 C5.69659724,-1.9283813 11.2903325,1.32186021 14.9456528,5.86113699 C23.7089184,16.7435999 26.8013923,30.7158655 26.8648194,33.9544805 C27.1317108,47.5820683 8.57385161,48.6991241 7.86365475,38.6110557 C7.12632829,28.137622 -3.26415823,6.15289796 1.16782901,2.15589941 Z" id="path-5"></path>
                                        </g>
                                        <g id="指头-Clipped">
                                            <mask id="mask-8" fill="white">
                                                <use xlink:href="#path-7"></use>
                                            </mask>
                                            <g id="path-5"></g>
                                            <g id="指头" mask="url(#mask-8)">
                                                <g id="编组" transform="translate(0.071674, 0.290045)">
                                                    <g id="蒙版" fill="#FFC61A">
                                                        <path d="M1.09615546,1.86585465 C5.62492369,-2.21842607 11.2186589,1.03181544 14.8739793,5.57109222 C23.6372449,16.4535551 26.7297188,30.4258207 26.7931459,33.6644357 C27.0600372,47.2920236 8.50217806,48.4090793 7.7919812,38.321011 C7.05465473,27.8475772 -3.33583178,5.86285319 1.09615546,1.86585465 Z" id="path-7"></path>
                                                    </g>
                                                    <g id="指头-Clipped">
                                                        <mask id="mask-10" fill="white">
                                                            <use xlink:href="#path-9"></use>
                                                        </mask>
                                                        <g id="path-7"></g>
                                                        <g id="指头" mask="url(#mask-10)">
                                                            <g transform="translate(10.000000, 37.000000)" id="椭圆形">
                                                                <g transform="translate(9.620046, 5.580129) rotate(-15.000000) translate(-9.620046, -5.580129) translate(1.120046, 2.080129)">
                                                                    <ellipse fill="#FFE390" fill-rule="nonzero" cx="8.11391753" cy="3.05714286" rx="3.21494845" ry="3.05714286"></ellipse>
                                                                    <ellipse fill="#FFE390" fill-rule="nonzero" cx="3.21494845" cy="3.66857143" rx="3.21494845" ry="3.05714286"></ellipse>
                                                                    <ellipse fill="#FFE390" fill-rule="nonzero" cx="13.3190722" cy="3.05714286" rx="3.21494845" ry="3.05714286"></ellipse>
                                                                </g>
                                                            </g>
                                                        </g>
                                                    </g>
                                                </g>
                                            </g>
                                        </g>
                                    </g>
                                    <g id="手臂" transform="translate(113.982533, 39.605868) rotate(5.000000) translate(-113.982533, -39.605868) translate(100.482533, 16.605868)">
                                        <g id="蒙版" fill="#FFC61A" fill-rule="nonzero">
                                            <path d="M1.16782901,2.15589941 C5.69659724,-1.9283813 11.2903325,1.32186021 14.9456528,5.86113699 C23.7089184,16.7435999 26.8013923,30.7158655 26.8648194,33.9544805 C27.1317108,47.5820683 8.57385161,48.6991241 7.86365475,38.6110557 C7.12632829,28.137622 -3.26415823,6.15289796 1.16782901,2.15589941 Z" id="path-9"></path>
                                        </g>
                                        <g id="指头-Clipped">
                                            <mask id="mask-12" fill="white">
                                                <use xlink:href="#path-11"></use>
                                            </mask>
                                            <g id="path-9"></g>
                                            <g id="指头" mask="url(#mask-12)">
                                                <g id="编组" transform="translate(0.071674, 0.290045)">
                                                    <g id="蒙版" fill="#FFC61A">
                                                        <path d="M1.09615546,1.86585465 C5.62492369,-2.21842607 11.2186589,1.03181544 14.8739793,5.57109222 C23.6372449,16.4535551 26.7297188,30.4258207 26.7931459,33.6644357 C27.0600372,47.2920236 8.50217806,48.4090793 7.7919812,38.321011 C7.05465473,27.8475772 -3.33583178,5.86285319 1.09615546,1.86585465 Z" id="path-11"></path>
                                                    </g>
                                                    <g id="指头-Clipped">
                                                        <mask id="mask-14" fill="white">
                                                            <use xlink:href="#path-13"></use>
                                                        </mask>
                                                        <g id="path-11"></g>
                                                        <g id="指头" mask="url(#mask-14)">
                                                            <g transform="translate(10.000000, 37.000000)" id="椭圆形">
                                                                <g transform="translate(9.620046, 5.580129) rotate(-15.000000) translate(-9.620046, -5.580129) translate(1.120046, 2.080129)">
                                                                    <ellipse fill="#FFE390" fill-rule="nonzero" cx="8.11391753" cy="3.05714286" rx="3.21494845" ry="3.05714286"></ellipse>
                                                                    <ellipse fill="#FFE390" fill-rule="nonzero" cx="3.21494845" cy="3.66857143" rx="3.21494845" ry="3.05714286"></ellipse>
                                                                    <ellipse fill="#FFE390" fill-rule="nonzero" cx="13.3190722" cy="3.05714286" rx="3.21494845" ry="3.05714286"></ellipse>
                                                                </g>
                                                            </g>
                                                        </g>
                                                    </g>
                                                </g>
                                            </g>
                                        </g>
                                    </g>
                                    <g id="腿" transform="translate(78.567617, 60.937700)">
                                        <path d="M0.697849077,34.0998493 C5.0851994,42.2180723 24.9375398,42.2180723 29.0572232,33.0808017 C30.5119755,29.8542273 28.2413612,18.8272934 22.2453803,1.44815377e-14 L6.0560965,1.44815377e-14 C0.648177221,19.3364075 -1.13790525,30.7030239 0.697849077,34.0998493 Z" id="路径-15" fill="#FFC000" fill-rule="nonzero"></path>
                                        <g id="椭圆形-Clipped">
                                            <mask id="mask-16" fill="white">
                                                <use xlink:href="#path-15"></use>
                                            </mask>
                                            <g id="path-13"></g>
                                            <g id="椭圆形" mask="url(#mask-16)">
                                                <g transform="translate(1.000000, 32.000000)" id="编组">
                                                    <g transform="translate(0.208158, 0.061754)">
                                                        <ellipse id="椭圆形" fill="#FFE390" fill-rule="nonzero" cx="13.5231959" cy="5.0952381" rx="5.35824742" ry="5.0952381"></ellipse>
                                                        <ellipse id="椭圆形" fill="#FFE390" fill-rule="nonzero" cx="5.35824742" cy="6.11428571" rx="5.35824742" ry="5.0952381"></ellipse>
                                                        <ellipse id="椭圆形" fill="#FFE390" fill-rule="nonzero" cx="22.1984536" cy="5.0952381" rx="5.35824742" ry="5.0952381"></ellipse>
                                                    </g>
                                                </g>
                                            </g>
                                        </g>
                                    </g>
                                    <g id="腿" transform="translate(51.320195, 81.437700) scale(-1, 1) translate(-51.320195, -81.437700) translate(36.320195, 60.937700)">
                                        <path d="M0.697849077,34.0998493 C5.0851994,42.2180723 24.9375398,42.2180723 29.0572232,33.0808017 C30.5119755,29.8542273 28.2413612,18.8272934 22.2453803,1.44815377e-14 L6.0560965,1.44815377e-14 C0.648177221,19.3364075 -1.13790525,30.7030239 0.697849077,34.0998493 Z" id="路径-15" fill="#FFC000" fill-rule="nonzero"></path>
                                        <g id="椭圆形-Clipped">
                                            <mask id="mask-18" fill="white">
                                                <use xlink:href="#path-17"></use>
                                            </mask>
                                            <g id="path-15"></g>
                                            <g id="椭圆形" mask="url(#mask-18)">
                                                <g transform="translate(1.000000, 32.000000)" id="编组">
                                                    <g transform="translate(0.208158, 0.061754)">
                                                        <ellipse id="椭圆形" fill="#FFE390" fill-rule="nonzero" cx="13.5231959" cy="5.0952381" rx="5.35824742" ry="5.0952381"></ellipse>
                                                        <ellipse id="椭圆形" fill="#FFE390" fill-rule="nonzero" cx="5.35824742" cy="6.11428571" rx="5.35824742" ry="5.0952381"></ellipse>
                                                        <ellipse id="椭圆形" fill="#FFE390" fill-rule="nonzero" cx="22.1984536" cy="5.0952381" rx="5.35824742" ry="5.0952381"></ellipse>
                                                    </g>
                                                </g>
                                            </g>
                                        </g>
                                    </g>
                                </g>
                                <path d="M102.296998,193.619048 C127.380405,193.619048 147.969679,183.758107 147.969679,153.366667 C147.969679,122.975226 127.380405,101.395238 102.296998,101.395238 C77.2135913,101.395238 57.134627,122.975226 57.134627,153.366667 C57.134627,183.758107 77.2135913,193.619048 102.296998,193.619048 Z" id="椭圆形" fill="#FFE38F" fill-rule="nonzero"></path>
                                <path d="M105.103699,132.957477 C137.514843,132.957477 163.789266,119.436547 163.789266,87.6380952 C163.789266,55.8396433 137.514843,30.0619048 105.103699,30.0619048 C72.6925555,30.0619048 46.4181322,55.8396433 46.4181322,87.6380952 C46.4181322,119.436547 72.6925555,132.957477 105.103699,132.957477 Z" id="椭圆形" fill="#FFD34D" fill-rule="nonzero"></path>
                                <g id="面部" transform="translate(56.624318, 64.200000)" fill-rule="nonzero">
                                    <g id="眼睛" transform="translate(2.551546, 0.000000)">
                                        <ellipse id="椭圆形" stroke="#FFECB1" stroke-width="3.978" fill="#594300" cx="9.95103093" cy="9.93571429" rx="9.95103093" ry="9.93571429"></ellipse>
                                        <ellipse id="椭圆形" fill="#FFFFFF" cx="9.95103093" cy="13.91" rx="2.65360825" ry="2.64952381"></ellipse>
                                        <ellipse id="椭圆形" fill="#FFFFFF" cx="7.29742268" cy="8.61095238" rx="1.32680412" ry="1.3247619"></ellipse>
                                    </g>
                                    <g id="眼睛" transform="translate(78.793814, 10.000000) scale(-1, 1) translate(-78.793814, -10.000000) translate(68.793814, 0.000000)">
                                        <ellipse id="椭圆形" stroke="#FFECB1" stroke-width="3.978" fill="#594300" cx="9.95103093" cy="9.93571429" rx="9.95103093" ry="9.93571429"></ellipse>
                                        <ellipse id="椭圆形" fill="#FFFFFF" cx="9.95103093" cy="13.91" rx="2.65360825" ry="2.64952381"></ellipse>
                                        <ellipse id="椭圆形" fill="#FFFFFF" cx="7.29742268" cy="8.61095238" rx="1.32680412" ry="1.3247619"></ellipse>
                                    </g>
                                    <path d="M59.1768878,66.609756 C56.266949,53.4220269 61.2730726,48.2931628 59.1768878,42.1772173 C55.1917057,30.5498279 51.6483415,27.8644588 46.1734955,24.0129594 C47.8952673,17.5105238 37.1547574,19.5661587 39.5543982,24.0129594 C37.0587895,21.4817514 29.4190149,24.9139317 36.1936941,28.5994884 C38.5699804,33.9225439 43.1127006,34.9988513 42.5015306,42.1772173 C41.6009051,52.7553209 36.1936941,57.7702322 33.1701031,64.1124277 C33.1701031,67.8596958 46.1734955,75.6711972 59.1768878,66.609756 Z" id="路径-13" fill="#FFDD78" transform="translate(46.438144, 45.347619) scale(-1, 1) rotate(-180.000000) translate(-46.438144, -45.347619) "></path>
                                    <ellipse id="椭圆形" fill="#FF82A8" cx="9.95103093" cy="31.5904762" rx="9.95103093" ry="3.05714286"></ellipse>
                                    <ellipse id="椭圆形" fill="#FF82A8" cx="80.3737113" cy="31.5904762" rx="9.95103093" ry="3.05714286"></ellipse>
                                </g>
                                <path d="M89.3963796,173.044476 C89.6821528,173.044476 90.0512765,173.026643 90.5037508,172.990976 C90.956225,172.95531 91.3848848,172.883976 91.7897301,172.776976 C92.1945755,172.669976 92.5398848,172.515421 92.825658,172.31331 C93.1114312,172.111198 93.2424106,171.855587 93.2185961,171.546476 C93.1233384,170.54781 93.0578487,169.489698 93.022127,168.372143 C92.9864054,167.254587 92.9566374,166.089476 92.9328229,164.87681 C94.2188023,164.639032 95.5524106,164.425032 96.9336477,164.23481 C98.3148848,164.044587 99.6604002,163.925698 100.970194,163.878143 C100.994008,165.114587 100.988055,166.303476 100.952333,167.44481 C100.916612,168.586143 100.839215,169.644254 100.720143,170.619143 C100.696328,170.880698 100.767771,171.094698 100.934472,171.261143 C101.101173,171.427587 101.327411,171.558365 101.613184,171.653476 C101.898957,171.748587 102.208545,171.808032 102.541947,171.83181 C102.875349,171.855587 103.208751,171.855587 103.542153,171.83181 C104.208957,171.784254 104.732874,171.665365 105.113905,171.475143 C105.494936,171.284921 105.709266,170.987698 105.756895,170.583476 C105.828338,169.989032 105.870014,169.198421 105.881921,168.211643 C105.893828,167.224865 105.870014,166.142976 105.810478,164.965976 C105.750941,163.788976 105.667591,162.564421 105.560426,161.29231 C105.453261,160.020198 105.328235,158.795643 105.185349,157.618643 C105.042462,156.441643 104.887668,155.35381 104.720967,154.355143 C104.554266,153.356476 104.375658,152.548032 104.185143,151.92981 C104.06607,151.573143 103.792204,151.371032 103.363545,151.323476 C102.934885,151.275921 102.494318,151.275921 102.041844,151.323476 C101.422668,151.39481 100.916612,151.537476 100.523673,151.751476 C100.130735,151.965476 99.9580807,152.215143 100.00571,152.500476 C100.220039,153.594254 100.398648,154.81881 100.541534,156.174143 C100.684421,157.529476 100.791586,158.932365 100.863029,160.38281 C99.648493,160.454143 98.3386992,160.573032 96.9336477,160.739476 C95.5285961,160.905921 94.1830807,161.096143 92.8971013,161.310143 C92.8971013,159.598143 92.9209157,157.97531 92.9685446,156.441643 C93.0161734,154.907976 93.0638023,153.606143 93.1114312,152.536143 C93.1352456,152.131921 92.8732868,151.781198 92.3255549,151.483976 C91.7778229,151.186754 91.0276683,151.038143 90.075091,151.038143 C89.4321013,151.038143 88.8426941,151.139198 88.3068693,151.34131 C87.7710446,151.543421 87.4555033,151.858476 87.3602456,152.286476 C87.2411734,152.809587 87.1161477,153.522921 86.9851683,154.426476 C86.8541889,155.330032 86.7232095,156.352476 86.5922301,157.49381 C86.4612508,158.635143 86.336225,159.841865 86.2171528,161.113976 C86.0980807,162.386087 85.9968693,163.64631 85.9135188,164.894643 C85.8301683,166.142976 85.7706322,167.343754 85.7349106,168.496976 C85.6991889,169.650198 85.7051425,170.65481 85.7527714,171.51081 C85.7765858,171.867476 85.925426,172.146865 86.199292,172.348976 C86.473158,172.551087 86.8006064,172.705643 87.1816374,172.812643 C87.5626683,172.919643 87.9556064,172.985032 88.3604518,173.00881 C88.7652971,173.032587 89.1106064,173.044476 89.3963796,173.044476 Z M113.937153,158.421143 C114.88973,158.421143 115.645838,158.581643 116.205478,158.902643 C116.765117,159.223643 117.033029,159.574365 117.009215,159.95481 C116.961586,161.167476 116.931818,162.207754 116.919911,163.075643 C116.908003,163.943532 116.913957,164.751976 116.937771,165.500976 C116.961586,166.249976 117.009215,166.987087 117.080658,167.71231 C117.152101,168.437532 117.247359,169.26381 117.366431,170.191143 C117.390246,170.476476 117.26522,170.70831 116.991354,170.886643 C116.717488,171.064976 116.384086,171.207643 115.991148,171.314643 C115.59821,171.421643 115.181457,171.492976 114.74089,171.528643 C114.300323,171.56431 113.937153,171.582143 113.65138,171.582143 C113.365606,171.582143 113.026251,171.570254 112.633313,171.546476 C112.240374,171.522698 111.865297,171.45731 111.508081,171.35031 C111.150864,171.24331 110.835323,171.094698 110.561457,170.904476 C110.287591,170.714254 110.138751,170.452698 110.114936,170.11981 C110.043493,169.335143 110.019679,168.467254 110.043493,167.516143 C110.067307,166.565032 110.114936,165.613921 110.18638,164.66281 C110.257823,163.711698 110.359034,162.802198 110.490014,161.93431 C110.620993,161.066421 110.769833,160.311476 110.936534,159.669476 C111.055606,159.193921 111.394962,158.866976 111.954601,158.688643 C112.51424,158.51031 113.175091,158.421143 113.937153,158.421143 Z M114.330091,149.290476 C114.80638,149.290476 115.264807,149.385587 115.705374,149.57581 C116.145941,149.766032 116.526972,150.027587 116.848467,150.360476 C117.169962,150.693365 117.425967,151.085698 117.616483,151.537476 C117.806998,151.989254 117.902256,152.476698 117.902256,152.99981 C117.902256,153.499143 117.806998,153.974698 117.616483,154.426476 C117.425967,154.878254 117.158055,155.276532 116.812746,155.62131 C116.467436,155.966087 116.068545,156.233587 115.61607,156.42381 C115.163596,156.614032 114.687307,156.709143 114.187204,156.709143 C113.663287,156.709143 113.175091,156.614032 112.722617,156.42381 C112.270143,156.233587 111.877204,155.966087 111.543802,155.62131 C111.2104,155.276532 110.948441,154.878254 110.757926,154.426476 C110.567411,153.974698 110.472153,153.499143 110.472153,152.99981 C110.472153,152.476698 110.579318,151.989254 110.793648,151.537476 C111.007978,151.085698 111.293751,150.693365 111.650967,150.360476 C112.008184,150.027587 112.418983,149.766032 112.883364,149.57581 C113.347746,149.385587 113.829988,149.290476 114.330091,149.290476 Z" id="Hi" fill="#FFF0C2" fill-rule="nonzero"></path>
                                <g transform="translate(71.423287, 0.000000)" fill-rule="nonzero" id="路径">
                                    <path d="M3.92347861,12.714494 L6.39885944,29.3555152 L6.39885944,36.5336486 C6.39885944,39.7016845 9.87391329,42.2749775 14.1344245,42.2749775 L52.8201839,42.2749775 C57.088629,42.2749775 60.555749,39.6957959 60.555749,36.5336486 L60.5716168,29.1965245 L63.0390637,12.714494 L46.6079301,28.3956828 L43.9103997,28.3956828 L33.4852381,5.1771595 L23.0600766,28.3956828 L20.3625462,28.3956828 L3.92347861,12.714494 Z" fill="#FFE54A"></path>
                                    <path d="M61.5299359,16.1368608 L62.821404,16.2846138 C62.8886679,16.2913298 62.9559319,16.3047619 63.0231959,16.3047619 C65.1352844,16.3047619 66.8505155,14.5921709 66.8505155,12.4833333 C66.8505155,10.3744958 65.1352844,8.66190476 63.0231959,8.66190476 C60.9111074,8.66190476 59.1958763,10.3744958 59.1958763,12.4833333 C59.1958763,13.6519248 59.7407144,14.7466399 60.6891363,15.4854046 L61.5299359,16.1368608 Z" fill="#FF3271"></path>
                                    <path d="M3.82731959,8.66190476 C1.7152311,8.66190476 0,10.3744958 0,12.4833333 C0,14.5921709 1.7152311,16.3047619 3.82731959,16.3047619 C3.89458355,16.3047619 3.96184752,16.2913298 4.02911148,16.2846138 L5.3205796,16.1368608 L6.16137916,15.4854046 C7.10980106,14.7466399 7.65463918,13.6519248 7.65463918,12.4833333 C7.64791278,10.3744958 5.93268168,8.66190476 3.82731959,8.66190476 Z" fill="#FF3271"></path>
                                    <path d="M33.6804124,0 C30.8642944,0 28.5773196,2.23053342 28.5773196,4.97715103 C28.5773196,7.10271817 29.9853786,8.98336399 32.0750457,9.6656448 L33.6804124,10.1904762 L35.285779,9.6656448 C37.3754462,8.98336399 38.7835052,7.10271817 38.7835052,4.97715103 C38.7835052,2.23053342 36.4965304,0 33.6804124,0 Z" fill="#FF3271"></path>
                                </g>
                            </g>
                        </g>
                    </g>
                    <g id="编组-2" stroke-width="1" fill="none" fill-rule="evenodd" transform="translate(145.482963, 478.370590) scale(-1, 1) rotate(15.000000) translate(-145.482963, -478.370590) translate(43.982963, 370.870590)">
                        <ellipse id="椭圆形" stroke-opacity="0.299442745" stroke="#CD9A00" stroke-width="2.88" fill="#FFFFFF" fill-rule="nonzero" cx="101.72" cy="107.48" rx="101.28" ry="107.04"></ellipse>
                        <g id="编组-3" opacity="0.6" transform="translate(36.440000, 55.640000)" fill-rule="nonzero">
                            <ellipse id="椭圆形" fill="#000000" cx="21.12" cy="6.72" rx="4.8" ry="6.72"></ellipse>
                            <path d="M51.84,44.16 C55.5513535,44.16 58.56,37.7129004 58.56,29.76 C58.56,21.8070996 55.5513535,15.36 51.84,15.36 C48.1286465,15.36 44.16,21.8070996 44.16,29.76 C44.16,37.7129004 48.1286465,44.16 51.84,44.16 Z" id="椭圆形" fill="#FCBD00" transform="translate(51.360000, 29.760000) rotate(90.000000) translate(-51.360000, -29.760000) "></path>
                            <path d="M13.2220114,49.9929256 C16.9333649,49.9929256 20.6840224,44.9129007 20.6840224,36.9600003 C20.6840224,29.0070999 16.9333649,24.0000003 13.2220114,24.0000003 C9.51065786,24.0000003 5.76000035,29.0070999 5.76000035,36.9600003 C5.76000035,44.9129007 9.51065786,49.9929256 13.2220114,49.9929256 Z" id="椭圆形" fill="#FF9090" transform="translate(13.222011, 36.996463) rotate(90.000000) translate(-13.222011, -36.996463) "></path>
                            <path d="M86.1820114,49.9929256 C89.8933649,49.9929256 93.6440224,44.9129007 93.6440224,36.9600003 C93.6440224,29.0070999 89.8933649,24.0000003 86.1820114,24.0000003 C82.4706579,24.0000003 78.7200004,29.0070999 78.7200004,36.9600003 C78.7200004,44.9129007 82.4706579,49.9929256 86.1820114,49.9929256 Z" id="椭圆形" fill="#FF9090" transform="translate(86.182011, 36.996463) rotate(90.000000) translate(-86.182011, -36.996463) "></path>
                            <ellipse id="椭圆形" fill="#000000" cx="77.76" cy="6.72" rx="4.8" ry="6.72"></ellipse>
                        </g>
                    </g>
                    <g id="编组-2" stroke-width="1" fill="none" fill-rule="evenodd" transform="translate(412.517037, 473.370590) rotate(15.000000) translate(-412.517037, -473.370590) translate(311.017037, 365.870590)">
                        <ellipse id="椭圆形" stroke-opacity="0.299442745" stroke="#CD9A00" stroke-width="2.88" fill="#FFFFFF" fill-rule="nonzero" cx="101.72" cy="107.48" rx="101.28" ry="107.04"></ellipse>
                        <g id="编组-3" opacity="0.6" transform="translate(36.440000, 55.640000)" fill-rule="nonzero">
                            <ellipse id="椭圆形" fill="#000000" cx="21.12" cy="6.72" rx="4.8" ry="6.72"></ellipse>
                            <path d="M51.84,44.16 C55.5513535,44.16 58.56,37.7129004 58.56,29.76 C58.56,21.8070996 55.5513535,15.36 51.84,15.36 C48.1286465,15.36 44.16,21.8070996 44.16,29.76 C44.16,37.7129004 48.1286465,44.16 51.84,44.16 Z" id="椭圆形" fill="#FCBD00" transform="translate(51.360000, 29.760000) rotate(90.000000) translate(-51.360000, -29.760000) "></path>
                            <path d="M13.2220114,49.9929256 C16.9333649,49.9929256 20.6840224,44.9129007 20.6840224,36.9600003 C20.6840224,29.0070999 16.9333649,24.0000003 13.2220114,24.0000003 C9.51065786,24.0000003 5.76000035,29.0070999 5.76000035,36.9600003 C5.76000035,44.9129007 9.51065786,49.9929256 13.2220114,49.9929256 Z" id="椭圆形" fill="#FF9090" transform="translate(13.222011, 36.996463) rotate(90.000000) translate(-13.222011, -36.996463) "></path>
                            <path d="M86.1820114,49.9929256 C89.8933649,49.9929256 93.6440224,44.9129007 93.6440224,36.9600003 C93.6440224,29.0070999 89.8933649,24.0000003 86.1820114,24.0000003 C82.4706579,24.0000003 78.7200004,29.0070999 78.7200004,36.9600003 C78.7200004,44.9129007 82.4706579,49.9929256 86.1820114,49.9929256 Z" id="椭圆形" fill="#FF9090" transform="translate(86.182011, 36.996463) rotate(90.000000) translate(-86.182011, -36.996463) "></path>
                            <ellipse id="椭圆形" fill="#000000" cx="77.76" cy="6.72" rx="4.8" ry="6.72"></ellipse>
                        </g>
                    </g>
                    <g id="编组-2" stroke-width="1" fill="none" fill-rule="evenodd" transform="translate(295.517037, 540.370590) rotate(15.000000) translate(-295.517037, -540.370590) translate(194.017037, 432.870590)">
                        <ellipse id="椭圆形" stroke-opacity="0.299442745" stroke="#CD9A00" stroke-width="2.88" fill="#FFFFFF" fill-rule="nonzero" cx="101.72" cy="107.48" rx="101.28" ry="107.04"></ellipse>
                        <g id="编组-3" opacity="0.6" transform="translate(36.440000, 55.640000)" fill-rule="nonzero">
                            <ellipse id="椭圆形" fill="#000000" cx="21.12" cy="6.72" rx="4.8" ry="6.72"></ellipse>
                            <path d="M51.84,44.16 C55.5513535,44.16 58.56,37.7129004 58.56,29.76 C58.56,21.8070996 55.5513535,15.36 51.84,15.36 C48.1286465,15.36 44.16,21.8070996 44.16,29.76 C44.16,37.7129004 48.1286465,44.16 51.84,44.16 Z" id="椭圆形" fill="#FCBD00" transform="translate(51.360000, 29.760000) rotate(90.000000) translate(-51.360000, -29.760000) "></path>
                            <path d="M13.2220114,49.9929256 C16.9333649,49.9929256 20.6840224,44.9129007 20.6840224,36.9600003 C20.6840224,29.0070999 16.9333649,24.0000003 13.2220114,24.0000003 C9.51065786,24.0000003 5.76000035,29.0070999 5.76000035,36.9600003 C5.76000035,44.9129007 9.51065786,49.9929256 13.2220114,49.9929256 Z" id="椭圆形" fill="#FF9090" transform="translate(13.222011, 36.996463) rotate(90.000000) translate(-13.222011, -36.996463) "></path>
                            <path d="M86.1820114,49.9929256 C89.8933649,49.9929256 93.6440224,44.9129007 93.6440224,36.9600003 C93.6440224,29.0070999 89.8933649,24.0000003 86.1820114,24.0000003 C82.4706579,24.0000003 78.7200004,29.0070999 78.7200004,36.9600003 C78.7200004,44.9129007 82.4706579,49.9929256 86.1820114,49.9929256 Z" id="椭圆形" fill="#FF9090" transform="translate(86.182011, 36.996463) rotate(90.000000) translate(-86.182011, -36.996463) "></path>
                            <ellipse id="椭圆形" fill="#000000" cx="77.76" cy="6.72" rx="4.8" ry="6.72"></ellipse>
                        </g>
                    </g>
                    <g id="编组-2" stroke-width="1" fill="none" fill-rule="evenodd" transform="translate(161.000000, 526.000000)">
                        <ellipse id="椭圆形" stroke-opacity="0.299442745" stroke="#CD9A00" stroke-width="2.88" fill="#FFFFFF" fill-rule="nonzero" cx="101.72" cy="107.48" rx="101.28" ry="107.04"></ellipse>
                        <g id="编组-3" opacity="0.6" transform="translate(36.440000, 55.640000)" fill-rule="nonzero">
                            <ellipse id="椭圆形" fill="#000000" cx="21.12" cy="6.72" rx="4.8" ry="6.72"></ellipse>
                            <path d="M51.84,44.16 C55.5513535,44.16 58.56,37.7129004 58.56,29.76 C58.56,21.8070996 55.5513535,15.36 51.84,15.36 C48.1286465,15.36 44.16,21.8070996 44.16,29.76 C44.16,37.7129004 48.1286465,44.16 51.84,44.16 Z" id="椭圆形" fill="#FCBD00" transform="translate(51.360000, 29.760000) rotate(90.000000) translate(-51.360000, -29.760000) "></path>
                            <path d="M13.2220114,49.9929256 C16.9333649,49.9929256 20.6840224,44.9129007 20.6840224,36.9600003 C20.6840224,29.0070999 16.9333649,24.0000003 13.2220114,24.0000003 C9.51065786,24.0000003 5.76000035,29.0070999 5.76000035,36.9600003 C5.76000035,44.9129007 9.51065786,49.9929256 13.2220114,49.9929256 Z" id="椭圆形" fill="#FF9090" transform="translate(13.222011, 36.996463) rotate(90.000000) translate(-13.222011, -36.996463) "></path>
                            <path d="M86.1820114,49.9929256 C89.8933649,49.9929256 93.6440224,44.9129007 93.6440224,36.9600003 C93.6440224,29.0070999 89.8933649,24.0000003 86.1820114,24.0000003 C82.4706579,24.0000003 78.7200004,29.0070999 78.7200004,36.9600003 C78.7200004,44.9129007 82.4706579,49.9929256 86.1820114,49.9929256 Z" id="椭圆形" fill="#FF9090" transform="translate(86.182011, 36.996463) rotate(90.000000) translate(-86.182011, -36.996463) "></path>
                            <ellipse id="椭圆形" fill="#000000" cx="77.76" cy="6.72" rx="4.8" ry="6.72"></ellipse>
                        </g>
                    </g>
                    <g id="编组-2" stroke-width="1" fill="none" fill-rule="evenodd" transform="translate(101.500000, 642.500000) scale(-1, 1) translate(-101.500000, -642.500000) translate(0.000000, 535.000000)">
                        <ellipse id="椭圆形" stroke-opacity="0.299442745" stroke="#CD9A00" stroke-width="2.88" fill="#FFFFFF" fill-rule="nonzero" cx="101.72" cy="107.48" rx="101.28" ry="107.04"></ellipse>
                        <g id="编组-3" opacity="0.6" transform="translate(36.440000, 55.640000)" fill-rule="nonzero">
                            <ellipse id="椭圆形" fill="#000000" cx="21.12" cy="6.72" rx="4.8" ry="6.72"></ellipse>
                            <path d="M51.84,44.16 C55.5513535,44.16 58.56,37.7129004 58.56,29.76 C58.56,21.8070996 55.5513535,15.36 51.84,15.36 C48.1286465,15.36 44.16,21.8070996 44.16,29.76 C44.16,37.7129004 48.1286465,44.16 51.84,44.16 Z" id="椭圆形" fill="#FCBD00" transform="translate(51.360000, 29.760000) rotate(90.000000) translate(-51.360000, -29.760000) "></path>
                            <path d="M13.2220114,49.9929256 C16.9333649,49.9929256 20.6840224,44.9129007 20.6840224,36.9600003 C20.6840224,29.0070999 16.9333649,24.0000003 13.2220114,24.0000003 C9.51065786,24.0000003 5.76000035,29.0070999 5.76000035,36.9600003 C5.76000035,44.9129007 9.51065786,49.9929256 13.2220114,49.9929256 Z" id="椭圆形" fill="#FF9090" transform="translate(13.222011, 36.996463) rotate(90.000000) translate(-13.222011, -36.996463) "></path>
                            <path d="M86.1820114,49.9929256 C89.8933649,49.9929256 93.6440224,44.9129007 93.6440224,36.9600003 C93.6440224,29.0070999 89.8933649,24.0000003 86.1820114,24.0000003 C82.4706579,24.0000003 78.7200004,29.0070999 78.7200004,36.9600003 C78.7200004,44.9129007 82.4706579,49.9929256 86.1820114,49.9929256 Z" id="椭圆形" fill="#FF9090" transform="translate(86.182011, 36.996463) rotate(90.000000) translate(-86.182011, -36.996463) "></path>
                            <ellipse id="椭圆形" fill="#000000" cx="77.76" cy="6.72" rx="4.8" ry="6.72"></ellipse>
                        </g>
                    </g>
                    <g id="编组-2" stroke-width="1" fill="none" fill-rule="evenodd" transform="translate(327.000000, 503.000000)">
                        <ellipse id="椭圆形" stroke-opacity="0.299442745" stroke="#CD9A00" stroke-width="2.88" fill="#FFFFFF" fill-rule="nonzero" cx="101.72" cy="107.48" rx="101.28" ry="107.04"></ellipse>
                        <g id="编组-3" opacity="0.6" transform="translate(36.440000, 55.640000)" fill-rule="nonzero">
                            <ellipse id="椭圆形" fill="#000000" cx="21.12" cy="6.72" rx="4.8" ry="6.72"></ellipse>
                            <path d="M51.84,44.16 C55.5513535,44.16 58.56,37.7129004 58.56,29.76 C58.56,21.8070996 55.5513535,15.36 51.84,15.36 C48.1286465,15.36 44.16,21.8070996 44.16,29.76 C44.16,37.7129004 48.1286465,44.16 51.84,44.16 Z" id="椭圆形" fill="#FCBD00" transform="translate(51.360000, 29.760000) rotate(90.000000) translate(-51.360000, -29.760000) "></path>
                            <path d="M13.2220114,49.9929256 C16.9333649,49.9929256 20.6840224,44.9129007 20.6840224,36.9600003 C20.6840224,29.0070999 16.9333649,24.0000003 13.2220114,24.0000003 C9.51065786,24.0000003 5.76000035,29.0070999 5.76000035,36.9600003 C5.76000035,44.9129007 9.51065786,49.9929256 13.2220114,49.9929256 Z" id="椭圆形" fill="#FF9090" transform="translate(13.222011, 36.996463) rotate(90.000000) translate(-13.222011, -36.996463) "></path>
                            <path d="M86.1820114,49.9929256 C89.8933649,49.9929256 93.6440224,44.9129007 93.6440224,36.9600003 C93.6440224,29.0070999 89.8933649,24.0000003 86.1820114,24.0000003 C82.4706579,24.0000003 78.7200004,29.0070999 78.7200004,36.9600003 C78.7200004,44.9129007 82.4706579,49.9929256 86.1820114,49.9929256 Z" id="椭圆形" fill="#FF9090" transform="translate(86.182011, 36.996463) rotate(90.000000) translate(-86.182011, -36.996463) "></path>
                            <ellipse id="椭圆形" fill="#000000" cx="77.76" cy="6.72" rx="4.8" ry="6.72"></ellipse>
                        </g>
                    </g>
                    <rect id="矩形" fill="url(#linearGradient-19)" fill-rule="nonzero" x="71" y="165" width="375" height="507"></rect>
                    <g id="logo-橙" stroke-width="1" fill="none" fill-rule="evenodd" transform="translate(138.000000, 0.000000)">
                        <g id="编组-2" transform="translate(52.000000, 52.000000) scale(-1, 1) translate(-52.000000, -52.000000) ">
                            <circle id="椭圆形" fill="#FFCD36" fill-rule="nonzero" cx="52" cy="52" r="52"></circle>
                            <g id="编组" transform="translate(16.800000, 14.800000)">
                                <path d="M47.6,14.8128031 C38.7257243,18.3577983 32.4,27.0368922 32.4,37.1315819 C32.4,47.4633797 38.3939403,56.2702709 47.6,59.6515586" id="路径" stroke="#FFFFFF" stroke-width="8" stroke-linecap="round" stroke-linejoin="round" transform="translate(40.000000, 37.232181) scale(-1, 1) translate(-40.000000, -37.232181) "></path>
                                <path d="M44.8,74.8 C60.5101163,69.3995925 70,54.78816 70,37.2321808 C70,20.2567305 59.700739,5.8231016 44.8,0" id="路径" stroke="#FFFFFF" stroke-width="8" stroke-linecap="round" stroke-linejoin="round"></path>
                                <path d="M45.6,26.8 C47.758186,28.9333333 51.0915193,30 55.6,30 C62.3627211,30 65.6,26.8 65.6,26.8" id="路径-2" stroke="#FFFFFF" stroke-width="7.2" stroke-linecap="round"></path>
                                <circle id="椭圆形" fill="#FFFFFF" fill-rule="nonzero" cx="6" cy="20.8" r="6"></circle>
                                <rect id="矩形" fill="#FFFFFF" fill-rule="nonzero" x="0" y="38.4" width="12" height="21.2" rx="6"></rect>
                            </g>
                        </g>
                        <g id="编组" transform="translate(124.000000, 24.400000)" fill-rule="nonzero">
                            <path d="M4.74939759,30.4 C5.08674699,30.4 5.52248996,30.378979 6.05662651,30.3369369 C6.59076305,30.2948949 7.09678715,30.2108108 7.5746988,30.0846847 C8.05261044,29.9585586 8.46024096,29.7763764 8.79759036,29.5381381 C9.13493976,29.2998999 9.28955823,28.9985986 9.26144578,28.6342342 C9.14899598,27.4570571 9.07168675,26.2098098 9.02951807,24.8924925 C8.9873494,23.5751752 8.95220884,22.2018018 8.92409639,20.7723724 C10.4421687,20.4920921 12.0164659,20.2398398 13.646988,20.0156156 C15.27751,19.7913914 16.8658635,19.6512513 18.4120482,19.5951952 C18.4401606,21.0526527 18.4331325,22.4540541 18.3909639,23.7993994 C18.3487952,25.1447447 18.2574297,26.391992 18.1168675,27.5411411 C18.088755,27.8494494 18.1730924,28.1017017 18.3698795,28.2978979 C18.5666667,28.4940941 18.8337349,28.6482482 19.1710843,28.7603604 C19.5084337,28.8724725 19.8738956,28.9425425 20.2674699,28.9705706 C20.6610442,28.9985986 21.0546185,28.9985986 21.4481928,28.9705706 C22.2353414,28.9145145 22.8538153,28.7743744 23.3036145,28.5501502 C23.7534137,28.3259259 24.0064257,27.9755756 24.0626506,27.4990991 C24.146988,26.7983984 24.1961847,25.8664665 24.210241,24.7033033 C24.2242972,23.5401401 24.1961847,22.2648649 24.1259036,20.8774775 C24.0556225,19.4900901 23.9572289,18.0466466 23.8307229,16.5471471 C23.7042169,15.0476476 23.5566265,13.6042042 23.3879518,12.2168168 C23.2192771,10.8294294 23.0365462,9.54714715 22.839759,8.36996997 C22.6429719,7.19279279 22.4321285,6.23983984 22.2072289,5.51111111 C22.0666667,5.09069069 21.7433735,4.85245245 21.2373494,4.7963964 C20.7313253,4.74034034 20.211245,4.74034034 19.6771084,4.7963964 C18.9461847,4.88048048 18.3487952,5.04864865 17.8849398,5.3009009 C17.4210843,5.55315315 17.2172691,5.84744745 17.273494,6.18378378 C17.526506,7.47307307 17.7373494,8.91651652 17.9060241,10.5141141 C18.0746988,12.1117117 18.2012048,13.7653654 18.2855422,15.4750751 C16.8518072,15.5591592 15.3056225,15.6992993 13.646988,15.8954955 C11.9883534,16.0916917 10.4,16.3159159 8.88192771,16.5681682 C8.88192771,14.5501502 8.91004016,12.6372372 8.96626506,10.8294294 C9.02248996,9.02162162 9.07871486,7.48708709 9.13493976,6.22582583 C9.16305221,5.74934935 8.85381526,5.33593594 8.20722892,4.98558559 C7.56064257,4.63523524 6.6751004,4.46006006 5.55060241,4.46006006 C4.79156627,4.46006006 4.09578313,4.57917918 3.46325301,4.81741742 C2.83072289,5.05565566 2.45823293,5.42702703 2.34578313,5.93153153 C2.20522088,6.54814815 2.05763052,7.38898899 1.90301205,8.45405405 C1.74839357,9.51911912 1.5937751,10.7243243 1.43915663,12.0696697 C1.28453815,13.415015 1.13694779,14.8374374 0.996385542,16.3369369 C0.855823293,17.8364364 0.736345382,19.3219219 0.637951807,20.7933934 C0.539558233,22.2648649 0.469277108,23.6802803 0.427108434,25.0396396 C0.384939759,26.398999 0.391967871,27.5831832 0.448192771,28.5921922 C0.476305221,29.0126126 0.652008032,29.3419419 0.975301205,29.5801802 C1.29859438,29.8184184 1.68514056,30.0006006 2.13493976,30.1267267 C2.58473896,30.2528529 3.04859438,30.3299299 3.52650602,30.357958 C4.00441767,30.385986 4.41204819,30.4 4.74939759,30.4 Z M33.3819277,28.6762763 C33.7192771,28.6762763 34.147992,28.6552553 34.6680723,28.6132132 C35.1881526,28.5711712 35.6801205,28.4870871 36.1439759,28.360961 C36.6078313,28.2348348 37.0014056,28.0666667 37.3246988,27.8564565 C37.647992,27.6462462 37.7955823,27.372973 37.7674699,27.0366366 C37.6269076,25.9435435 37.5144578,24.9695696 37.4301205,24.1147147 C37.3457831,23.2598599 37.2895582,22.390991 37.2614458,21.5081081 C37.2333333,20.6252252 37.2263052,19.6722723 37.2403614,18.6492492 C37.2544177,17.6262262 37.2895582,16.4 37.3457831,14.9705706 C37.3738956,14.5221221 37.0576305,14.1087087 36.396988,13.7303303 C35.7363454,13.351952 34.8437751,13.1627628 33.7192771,13.1627628 C32.8196787,13.1627628 32.0395582,13.2678679 31.3789157,13.4780781 C30.7182731,13.6882883 30.3176707,14.0736737 30.1771084,14.6342342 C29.9803213,15.390991 29.8046185,16.2808809 29.65,17.3039039 C29.4953815,18.3269269 29.3759036,19.398999 29.2915663,20.5201201 C29.2072289,21.6412412 29.151004,22.7623624 29.1228916,23.8834835 C29.0947791,25.0046046 29.1228916,26.0276276 29.2072289,26.9525526 C29.2353414,27.3449449 29.4110442,27.6532533 29.7343373,27.8774775 C30.0576305,28.1017017 30.4301205,28.2768769 30.8518072,28.403003 C31.273494,28.5291291 31.7162651,28.6062062 32.1801205,28.6342342 C32.6439759,28.6622623 33.0445783,28.6762763 33.3819277,28.6762763 Z" id="Hi" fill="#333333"></path>
                            <path d="M34.0144578,11.1447447 C34.6048193,11.1447447 35.1670683,11.0326326 35.7012048,10.8084084 C36.2353414,10.5841842 36.7062249,10.2688689 37.1138554,9.86246246 C37.5214859,9.45605606 37.837751,8.98658659 38.0626506,8.45405405 C38.2875502,7.92152152 38.4,7.36096096 38.4,6.77237237 C38.4,6.15575576 38.2875502,5.58118118 38.0626506,5.04864865 C37.837751,4.51611612 37.5355422,4.05365365 37.1560241,3.66126126 C36.776506,3.26886887 36.3267068,2.96056056 35.8066265,2.73633634 C35.2865462,2.51211211 34.7453815,2.4 34.1831325,2.4 C33.5927711,2.4 33.023494,2.51211211 32.4753012,2.73633634 C31.9271084,2.96056056 31.4421687,3.26886887 31.0204819,3.66126126 C30.5987952,4.05365365 30.2614458,4.51611612 30.0084337,5.04864865 C29.7554217,5.58118118 29.6289157,6.15575576 29.6289157,6.77237237 C29.6289157,7.36096096 29.7413655,7.92152152 29.9662651,8.45405405 C30.1911647,8.98658659 30.5004016,9.45605606 30.8939759,9.86246246 C31.2875502,10.2688689 31.7514056,10.5841842 32.2855422,10.8084084 C32.8196787,11.0326326 33.3959839,11.1447447 34.0144578,11.1447447 Z" id="路径" fill="#FF5280"></path>
                            <path d="M62.3574181,9.24590761 C62.6596831,9.44883562 62.993434,9.44883562 63.3586708,9.24590761 C63.7239076,9.04297959 64.0261725,8.76395358 64.2654656,8.40882955 C64.5047586,8.05370553 64.6495939,7.6732155 64.6999714,7.26735948 C64.7503489,6.86150345 64.5992164,6.54442843 64.246574,6.31613442 C63.9694978,6.1385724 63.6231526,5.92930289 63.2075383,5.68832587 C62.791924,5.44734886 62.3637153,5.20003034 61.9229123,4.94637033 C61.4821093,4.69271031 61.0476034,4.45807479 60.6193948,4.24246378 C60.1911861,4.02685276 59.8385437,3.84294925 59.5614675,3.69075324 C59.1836363,3.51319123 58.8183995,3.53221573 58.4657571,3.74782675 C58.1131146,3.96343776 57.8360384,4.26148828 57.6345285,4.64197831 C57.4330185,5.02246833 57.3322636,5.40929986 57.3322636,5.80247288 C57.3322636,6.19564591 57.483396,6.46833043 57.785661,6.62052644 C58.5161346,6.97565046 59.3158772,7.40053099 60.1848889,7.89516802 C61.0539006,8.38980505 61.778077,8.84005158 62.3574181,9.24590761 Z M61.4128402,27.8708943 C62.1181251,28.0611393 62.7604381,28.1182128 63.3397792,28.0421148 C63.9191203,27.9660168 64.3095459,27.7123568 64.5110558,27.2811348 C65.1911519,25.8099067 65.8712481,24.4211181 66.5513442,23.114769 C67.2314403,21.8084199 67.9367251,20.5464614 68.6671987,19.3288933 L68.6671987,19.3288933 L76.6394365,19.1386483 C77.0928339,19.1386483 77.4202876,18.9927937 77.6217975,18.7010847 C77.8233075,18.4093757 77.9177653,18.0859592 77.9051709,17.7308352 C77.8925765,17.3757111 77.7792272,17.0522946 77.5651228,16.7605856 C77.3510185,16.4688766 77.0550508,16.3230221 76.6772196,16.3230221 C75.845991,16.2976561 74.9077103,16.2849731 73.8623774,16.2849731 L73.8623774,16.2849731 L70.5185715,16.2849731 C71.2742338,15.092771 72.0487877,13.9195934 72.8422332,12.7654403 C73.6356786,11.6112873 74.46061,10.4254267 75.3170274,9.20785861 C75.5689148,8.82736858 75.6192923,8.39614655 75.4681598,7.91419252 C75.3170274,7.43223849 75.0273568,6.95662596 74.5991481,6.48735493 C74.1709395,6.0180839 73.648273,5.58686187 73.0311488,5.19368884 C72.4140245,4.80051582 71.7843059,4.5151483 71.1419929,4.33758629 C70.4996799,4.16002427 69.8888529,4.12197527 69.3095117,4.22343928 C68.7301706,4.32490328 68.2515844,4.6292953 67.8737533,5.13661534 C66.3624286,7.19126147 64.9707504,9.1127361 63.6987188,10.9010392 C62.4266872,12.6893423 61.1609528,14.560085 59.9015155,16.5132671 C58.8435882,16.5639991 57.8738216,16.6083896 56.9922155,16.6464386 C56.1106094,16.6844876 55.3423527,16.7288781 54.6874453,16.7796101 C54.2592367,16.8303421 53.9632689,17.0142456 53.7995421,17.3313206 C53.6358152,17.6483957 53.5728434,17.9908367 53.6106265,18.3586437 C53.6484096,18.7264507 53.7743533,19.0625503 53.9884577,19.3669423 C54.202562,19.6713343 54.4985298,19.8108473 54.8763609,19.7854813 L54.8763609,19.7854813 L57.8990103,19.6332853 L56.0476376,22.7533035 C55.7957501,23.2098915 55.7957501,23.6918456 56.0476376,24.1991656 C56.299525,24.7064856 56.7088421,25.2074642 57.2755889,25.7021012 C57.8423356,26.1967382 58.497243,26.6343018 59.240311,27.0147918 C59.9833789,27.3952818 60.7075554,27.6806493 61.4128402,27.8708943 Z M59.3725519,14.3064249 C59.6748168,14.509353 59.9959733,14.5156945 60.3360214,14.3254494 C60.6760694,14.1352044 60.96574,13.8752029 61.2050331,13.5454449 C61.4443261,13.2156869 61.5765671,12.8542213 61.6017558,12.4610483 C61.6269445,12.0678753 61.4632177,11.7571418 61.1105753,11.5288478 C60.8334991,11.3512857 60.493451,11.1420162 60.0904311,10.9010392 C59.6874112,10.6600622 59.2654997,10.4190852 58.8246967,10.1781082 C58.3838936,9.93713115 57.955685,9.70883714 57.5400707,9.49322612 C57.1244564,9.27761511 56.7655168,9.1063946 56.4632519,8.97956459 C56.0854207,8.80200258 55.7264811,8.81468558 55.386433,9.01761359 C55.046385,9.22054161 54.7819031,9.49322612 54.5929876,9.83566715 C54.404072,10.1781082 54.3096142,10.5395737 54.3096142,10.9200637 C54.3096142,11.3005537 54.473341,11.5668968 54.8007947,11.7190928 C55.1534371,11.8966548 55.5375655,12.0995828 55.9531798,12.3278768 C56.3687941,12.5561708 56.7781112,12.7844648 57.1811311,13.0127589 C57.584151,13.2410529 57.9745765,13.4693469 58.3524077,13.6976409 C58.7302389,13.9259349 59.0702869,14.1288629 59.3725519,14.3064249 Z M74.6747144,27.0908898 C74.9266018,27.3191838 75.2414611,27.3762573 75.6192923,27.2621103 C75.9971235,27.1479633 76.3308743,26.9450353 76.6205449,26.6533263 C76.9102155,26.3616172 77.0991311,26.0255177 77.1872917,25.6450277 C77.2754523,25.2645377 77.1684001,24.9347796 76.8661352,24.6557536 C76.6142477,24.4274596 76.2427137,24.1294091 75.7515332,23.7616021 C75.2603527,23.393795 74.7376862,23.013305 74.1835338,22.620132 C73.6293815,22.226959 73.1004178,21.8528104 72.5966429,21.4976864 C72.092868,21.1425624 71.7150369,20.8762194 71.4631494,20.6986574 C71.110507,20.4703633 70.7515674,20.4323143 70.3863306,20.5845104 C70.0210938,20.7367064 69.7188288,20.9713419 69.4795357,21.2884169 C69.2402427,21.6054919 69.0954074,21.9479329 69.0450299,22.31574 C68.9946524,22.683547 69.1080018,22.9689145 69.385078,23.1718425 C69.7125316,23.4001365 70.1218487,23.6918456 70.6130293,24.0469696 C71.1042098,24.4020936 71.6079847,24.7699006 72.124354,25.1503907 C72.6407232,25.5308807 73.1256066,25.8923462 73.579004,26.2347872 C74.0324014,26.5772282 74.3976382,26.8625958 74.6747144,27.0908898 Z M95.0917664,11.110606 C94.8493247,10.5793072 94.5297425,10.0528635 94.1330198,9.53127513 C93.6796223,8.93517409 93.1884418,8.43419555 92.6594782,8.02833953 C92.1305145,7.6224835 91.6015509,7.34979898 91.0725873,7.21028597 C90.5436236,7.07077297 90.0902262,7.15321247 89.712395,7.45760449 C89.0322989,8.01565653 88.3081225,8.59907457 87.5398658,9.20785861 C86.7716091,9.81664265 86.0222439,10.4190852 85.2917703,11.0151862 C84.5612967,11.6112873 83.8812006,12.1820223 83.251482,12.7273913 C82.6217634,13.2727604 82.0802054,13.7356899 81.6268079,14.1161799 C81.123033,14.547402 80.8648484,15.0737465 80.852254,15.6952135 C80.8396597,16.3166806 80.984495,16.9444891 81.2867599,17.5786392 C81.5890248,18.2127892 82.0109363,18.8215732 82.5524943,19.4049913 C83.0940523,19.9884093 83.6607991,20.4640218 84.2527346,20.8318289 C84.8446701,21.1996359 85.417714,21.4342714 85.9718664,21.5357354 C86.5260188,21.6371994 86.9794162,21.5103694 87.3320587,21.1552454 C87.5839461,20.9015854 87.8736167,20.6225594 88.2010703,20.3181673 C88.528524,20.0137753 88.8937608,19.6840173 89.2967807,19.3288933 C89.2464033,19.9123113 89.2086201,20.5147538 89.1834314,21.1362209 C89.1582427,21.7576879 89.1330539,22.3474475 89.1078652,22.9054995 C89.0826764,23.4635515 89.070082,23.9708716 89.070082,24.4274596 L89.070082,24.4274596 L89.070082,25.5689297 C89.070082,25.8733217 89.2275117,26.0762497 89.542371,26.1777137 C89.8572303,26.2791777 90.1972784,26.3172267 90.5625152,26.2918607 C90.927752,26.2664947 91.2552057,26.1840552 91.5448762,26.0445422 C91.8345468,25.9050292 91.9667877,25.7338087 91.941599,25.5308807 C91.8912215,25.1757567 91.8471412,24.6494121 91.809358,23.9518471 C91.7715749,23.254282 91.7526834,22.493302 91.7526834,21.6689069 L91.7526834,21.6689069 L91.7531498,18.9018989 C91.7556376,18.1803771 91.7680765,17.5490455 91.7904665,17.0079041 L91.7904665,17.0079041 L95.0398146,14.0781309 C95.190947,13.9259349 95.291702,13.7991049 95.3420795,13.6976409 C95.4680232,14.2810589 95.663236,14.7820375 95.9277178,15.2005765 C96.1921996,15.6191155 96.5385449,15.866434 96.9667536,15.942532 C97.017131,15.9678981 97.1052916,15.9805811 97.2312354,15.9805811 C96.9541592,16.2088751 96.6959745,16.4181446 96.4566815,16.6083896 C96.2173884,16.7986346 95.9969869,16.9698551 95.7954769,17.1220511 C95.4428345,17.3757111 95.2854048,17.7118107 95.323188,18.1303497 C95.3609711,18.5488887 95.5184007,18.9166957 95.7954769,19.2337708 C96.0725531,19.5508458 96.4314927,19.7664568 96.8722958,19.8806038 C97.3130988,19.9947508 97.7476046,19.8742623 98.1758133,19.5191383 C98.6795882,19.0879163 99.1770659,18.6566942 99.6682464,18.2254722 C100.159427,17.7942502 100.631716,17.3503451 101.085113,16.8937571 C101.311812,17.0205871 101.513322,17.1474171 101.689643,17.2742471 C101.261435,17.6547372 100.814334,18.0352272 100.348343,18.4157172 C99.8823508,18.7962072 99.4226562,19.1640143 98.9692588,19.5191383 C98.5158614,19.8742623 98.0876527,20.2040203 97.6846328,20.5084123 C97.2816129,20.8128044 96.9289704,21.0664644 96.6267055,21.2693924 C96.3244406,21.4723204 96.1733081,21.7513464 96.1733081,22.1064705 C96.1733081,22.4615945 96.2803603,22.7786695 96.4944646,23.0576955 C96.7085689,23.3367215 96.9856451,23.545991 97.3256932,23.6855041 C97.6657412,23.8250171 98.0120865,23.7806266 98.3647289,23.5523325 C98.6418051,23.3747705 98.9944475,23.1211105 99.4226562,22.7913525 C99.8508648,22.4615945 100.310559,22.087446 100.80174,21.6689069 C101.29292,21.2503679 101.784101,20.8128044 102.275282,20.3562163 C102.766462,19.8996283 103.213562,19.4810893 103.616582,19.1005993 C103.692148,19.2020633 103.75512,19.3035273 103.805498,19.4049913 C103.855875,19.5064553 103.906253,19.6206023 103.95663,19.7474323 C103.452855,20.2040203 102.867217,20.7113404 102.199715,21.2693924 C101.532214,21.8274444 100.858415,22.3728135 100.178319,22.9054995 C99.4982224,23.4381855 98.843315,23.9264811 98.2135964,24.3703861 C97.5838778,24.8142911 97.0423198,25.1630737 96.5889224,25.4167337 C96.2614687,25.5942957 96.0851475,25.8669802 96.0599587,26.2347872 C96.03477,26.6025943 96.1166334,26.9450353 96.305549,27.2621103 C96.4944646,27.5791853 96.777838,27.8138208 97.1556691,27.9660168 C97.5335003,28.1182128 97.961709,28.0801638 98.4402951,27.8518698 C98.7173713,27.6996738 99.0700137,27.4840628 99.4982224,27.2050368 C99.9264311,26.9260108 100.392423,26.5962527 100.896198,26.2157627 C101.399973,25.8352727 101.916342,25.4294167 102.445306,24.9981946 C102.974269,24.5669726 103.490638,24.1230676 103.994413,23.6664796 C103.66696,24.3767276 103.188374,25.0425851 102.558655,25.6640522 C101.928936,26.2855192 101.135491,26.8245468 100.178319,27.2811348 C99.8256761,27.4333308 99.6367605,27.7060153 99.6115718,28.0991883 C99.586383,28.4923614 99.6556521,28.8791929 99.8193789,29.2596829 C99.9831057,29.640173 100.234993,29.9509065 100.575041,30.1918835 C100.915089,30.4328605 101.274029,30.464568 101.65186,30.287006 C103.314317,29.5513919 104.655618,28.6128499 105.675762,27.4713798 C106.695906,26.3299097 107.3823,25.0996587 107.734942,23.7806266 L107.734942,23.7806266 L109.548532,25.3025867 C110.153061,25.8099067 110.656836,26.2664947 111.059856,26.6723508 C111.261366,26.8752788 111.519551,26.9260108 111.83441,26.8245468 C112.14927,26.7230828 112.432643,26.5328377 112.68453,26.2538117 C112.936418,25.9747857 113.100145,25.6513692 113.175711,25.2835622 C113.251277,24.9157551 113.150522,24.5796556 112.873446,24.2752636 C112.671936,24.0469696 112.401157,23.7806266 112.061109,23.4762345 C111.721061,23.1718425 111.349527,22.861109 110.946507,22.544034 C110.543487,22.226959 110.121576,21.9035424 109.680773,21.5737844 C109.239969,21.2440264 108.818058,20.9269514 108.415038,20.6225594 C108.792869,20.4196313 109.195889,20.1849958 109.624098,19.9186528 C110.052306,19.6523098 110.467921,19.3923083 110.870941,19.1386483 C111.273961,18.8849882 111.626603,18.6440112 111.928868,18.4157172 C112.231133,18.1874232 112.445237,17.9971782 112.571181,17.8449822 C112.772691,17.5913222 112.848257,17.2996131 112.79788,16.9698551 C112.747502,16.6400971 112.621558,16.3483881 112.420049,16.0947281 C112.218539,15.841068 111.966651,15.663506 111.664386,15.562042 C111.362121,15.460578 111.059856,15.51131 110.757591,15.714238 C110.623251,15.7987914 110.466521,15.8974369 110.287401,16.0101747 L110.001929,16.1898506 C109.699664,16.3800956 109.37221,16.5766821 109.019568,16.7796101 C108.666926,16.9825381 108.307986,17.1918076 107.942749,17.4074186 C107.577512,17.6230297 107.243761,17.8196162 106.941497,17.9971782 C106.538477,17.3630281 106.085079,16.8049761 105.581304,16.3230221 C106.311778,16.2722901 106.985577,16.2152166 107.602701,16.1518016 C108.219825,16.0883866 108.755086,15.9932641 109.208484,15.866434 C109.712258,15.76497 110.115278,15.371797 110.417543,14.686915 C110.719808,14.0020329 110.883535,13.2473944 110.908724,12.4229993 C110.933913,11.5986043 110.814266,10.7995752 110.549784,10.0259122 C110.285302,9.25224911 109.850797,8.71322157 109.246267,8.40882955 C109.044757,8.30736555 108.805464,8.21858454 108.528387,8.14248654 C108.251311,8.06638853 107.936452,8.00297353 107.583809,7.95224152 C107.911263,7.41955549 108.087584,6.89321095 108.112773,6.37320792 C108.137962,5.85320489 107.974235,5.37759235 107.621593,4.94637033 C107.26895,4.5151483 106.708501,4.16002427 105.940244,3.88099826 C105.171987,3.60197224 104.145546,3.44977623 102.86092,3.42441023 L102.86092,3.42441023 L103.163185,3.0058712 C103.490638,2.49855116 103.528422,2.01025563 103.276534,1.5409846 C103.024647,1.07171357 102.65941,0.697565046 102.180824,0.418539028 C101.702238,0.139513009 101.185868,0 100.631716,0 C100.077564,0 99.6619492,0.202928013 99.3848731,0.60878404 C98.8055319,1.36976409 98.201002,2.18147614 97.5712834,3.0439202 C96.9415648,3.90636426 96.1984968,4.97173633 95.3420795,6.24003641 C95.0650033,6.67125844 95.0335174,7.10882197 95.2476217,7.552727 C95.461726,7.99663203 95.7828825,8.38346355 96.2110912,8.71322157 C95.934015,8.96688159 95.7073163,9.32200561 95.5309951,9.77859364 C95.3546739,10.2351817 95.2413245,10.7551847 95.190947,11.3386027 L95.190947,11.3380592 L95.0917664,11.110606 Z M99.9138367,7.87614352 L101.122896,6.0117424 C102.357145,5.96101039 103.194671,6.0688159 103.635474,6.33515892 C104.076277,6.60150193 103.994413,7.06443146 103.389883,7.72394751 C102.785354,7.72394751 102.193418,7.73663051 101.614077,7.76199651 C101.034736,7.78736251 100.467989,7.82541151 99.9138367,7.87614352 L99.9138367,7.87614352 Z M99.7627042,13.5834939 C99.6367605,13.5834939 99.4730337,13.5581279 99.2715237,13.5073959 C98.9188813,13.4566639 98.6669938,13.2791019 98.5158614,12.9747099 C98.3647289,12.6703178 98.2891627,12.3405598 98.2891627,11.9854358 C98.2891627,11.6303118 98.3584317,11.2942122 98.4969698,10.9771372 C98.6355079,10.6600622 98.843315,10.4634757 99.1203912,10.3873777 C99.3974674,10.3112797 99.9012423,10.2478647 100.631716,10.1971327 C101.36219,10.1464007 102.143041,10.1210347 102.974269,10.1210347 C102.017097,11.2371387 100.946575,12.3912918 99.7627042,13.5834939 Z M103.95663,13.7356899 C104.410028,13.2030039 104.850831,12.6512933 105.279039,12.0805583 C105.707248,11.5098233 106.135457,10.9200637 106.563665,10.3112797 C106.714798,10.3620117 106.847039,10.3937192 106.960388,10.4064022 C107.073737,10.4190852 107.18079,10.4507927 107.281545,10.5015247 C107.483055,10.5776227 107.653079,10.7678677 107.791617,11.0722597 C107.930155,11.3766517 108.005721,11.7000683 108.018315,12.0425093 C108.03091,12.3849503 107.974235,12.7020253 107.848291,12.9937344 C107.722348,13.2854434 107.495649,13.4566639 107.168195,13.5073959 C106.815553,13.5834939 106.355858,13.6342259 105.789111,13.6595919 C105.222365,13.6849579 104.611538,13.7103239 103.95663,13.7356899 Z" id="头像" fill="#333333"></path>
                            <g id="让头像有趣一点" transform="translate(0.000000, 35.000000)">
                                <use fill="#000000" xlink:href="#path-20"></use>
                                <use fill="#767676" xlink:href="#path-20"></use>
                            </g>
                        </g>
                    </g>
                </g>
            </g>
        </g>
    </g>
</svg>