<?xml version="1.0" encoding="UTF-8"?>
<svg width="375px" height="812px" viewBox="0 0 375 812" version="1.1" xmlns="http://www.w3.org/2000/svg" xmlns:xlink="http://www.w3.org/1999/xlink">
    <title>启动界面-4</title>
    <defs>
        <path d="M0.359757581,16.3786407 C11.6512807,4.8623866 23.1633141,-0.551356554 34.8958579,0.137411277 C85.4285069,3.10396854 64.9374762,60.0731651 51.582616,60.0731651 C39.8472269,60.0731651 46.8461718,89.613691 29.1334438,89.613691 C18.8309778,89.613691 16.4112022,88.8215793 7.85317751,67.0396163 C2.14782772,52.5183076 -0.349978928,35.6313158 0.359757581,16.3786407 Z" id="path-1"></path>
        <path d="M0.359757581,16.3786407 C11.6512807,4.8623866 23.1633141,-0.551356554 34.8958579,0.137411277 C85.4285069,3.10396854 64.9374762,60.0731651 51.582616,60.0731651 C39.8472269,60.0731651 46.8461718,89.613691 29.1334438,89.613691 C18.8309778,89.613691 16.4112022,88.8215793 7.85317751,67.0396163 C2.14782772,52.5183076 -0.349978928,35.6313158 0.359757581,16.3786407 Z" id="path-3"></path>
        <path d="M1.120644,2.06523075 C5.46643169,-1.84728115 10.8341574,1.26626796 14.3417881,5.61464057 C22.7509823,16.0394298 25.7185078,29.4240768 25.7793722,32.5264883 C26.03548,45.5809533 8.22743337,46.6510301 7.54593133,36.9872263 C6.83839583,26.9542641 -3.13227305,5.89413122 1.120644,2.06523075 Z" id="path-5"></path>
        <path d="M1.05186635,1.78738413 C5.39765404,-2.12512777 10.7653798,0.988421336 14.2730104,5.33679395 C22.6822047,15.7615831 25.6497301,29.1462301 25.7105945,32.2486417 C25.9667024,45.3031067 8.15865571,46.3731834 7.47715368,36.7093797 C6.76961818,26.6764174 -3.2010507,5.6162846 1.05186635,1.78738413 Z" id="path-7"></path>
        <path d="M1.120644,2.06523075 C5.46643169,-1.84728115 10.8341574,1.26626796 14.3417881,5.61464057 C22.7509823,16.0394298 25.7185078,29.4240768 25.7793722,32.5264883 C26.03548,45.5809533 8.22743337,46.6510301 7.54593133,36.9872263 C6.83839583,26.9542641 -3.13227305,5.89413122 1.120644,2.06523075 Z" id="path-9"></path>
        <path d="M1.05186635,1.78738413 C5.39765404,-2.12512777 10.7653798,0.988421336 14.2730104,5.33679395 C22.6822047,15.7615831 25.6497301,29.1462301 25.7105945,32.2486417 C25.9667024,45.3031067 8.15865571,46.3731834 7.47715368,36.7093797 C6.76961818,26.6764174 -3.2010507,5.6162846 1.05186635,1.78738413 Z" id="path-11"></path>
        <path d="M0.669653155,32.6657435 C4.87973679,40.4425459 23.9299624,40.4425459 27.883194,31.689553 C29.2791684,28.5986757 27.1002961,18.0354914 21.346577,1.3872501e-14 L5.81140573,1.3872501e-14 C0.621988242,18.5231941 -1.09192928,29.4117753 0.669653155,32.6657435 Z" id="path-13"></path>
        <path d="M0.669653155,32.6657435 C4.87973679,40.4425459 23.9299624,40.4425459 27.883194,31.689553 C29.2791684,28.5986757 27.1002961,18.0354914 21.346577,1.3872501e-14 L5.81140573,1.3872501e-14 C0.621988242,18.5231941 -1.09192928,29.4117753 0.669653155,32.6657435 Z" id="path-15"></path>
    </defs>
    <g id="启动界面-4" stroke="none" stroke-width="1" fill="none" fill-rule="evenodd">
        <g id="隐藏" transform="translate(-71.000000, -38.000000)"></g>
        <g id="背景编辑-未选图" transform="translate(-1.000000, -0.977646)" fill="#FF9EBE">
            <rect id="矩形" x="1" y="1" width="375" height="814"></rect>
        </g>
        <g id="编组" transform="translate(-57.000000, 462.000000)">
            <g id="小象" transform="translate(95.000000, 102.500000) scale(-1, 1) rotate(-30.000000) translate(-95.000000, -102.500000) ">
                <g transform="translate(-1.000185, 0.000000)">
                    <g id="耳朵" transform="translate(123.422866, 37.095238)">
                        <path d="M0.359757581,16.8069919 C11.6512807,5.29073772 23.1633141,-0.123005426 34.8958579,0.565762405 C85.4285069,3.53231967 64.9374762,60.5015162 51.582616,60.5015162 C39.8472269,60.5015162 42.9180937,82.8808973 29.2132887,82.8808973 C18.9108227,82.8808973 14.6907216,79.3642408 7.85317751,67.4679674 C3.29481475,59.5371185 0.797008109,42.6501267 0.359757581,16.8069919 Z" id="路径-12" fill="#FCDE82"></path>
                        <g id="路径-11" transform="translate(0.000000, 0.428351)">
                            <mask id="mask-2" fill="white">
                                <use xlink:href="#path-1"></use>
                            </mask>
                            <g id="蒙版"></g>
                            <path d="M-1.42671679,34.1270027 C8.9924749,22.5856705 19.4147112,14.7981405 29.8399921,10.7644127 C41.0254174,6.43657144 59.7327116,14.8884327 64.6058531,17.0586639 C63.0316559,13.3186596 57.2900664,1.21419018 34.8422607,-0.413351888 C18.2277395,-1.61796104 4.63181501,12.0753487 0.241974463,16.3501827 C-3.33968973,20.6526013 -3.89592015,26.578208 -1.42671679,34.1270027 Z" fill="#FFD040" mask="url(#mask-2)"></path>
                        </g>
                    </g>
                    <g id="耳朵" transform="translate(34.571205, 82.455396) scale(-1, 1) translate(-34.571205, -82.455396) translate(0.564905, 37.095238)">
                        <path d="M0.359757581,16.8069919 C11.6512807,5.29073772 23.1633141,-0.123005426 34.8958579,0.565762405 C85.4285069,3.53231967 64.9374762,60.5015162 51.582616,60.5015162 C39.8472269,60.5015162 42.9180937,82.8808973 29.2132887,82.8808973 C18.9108227,82.8808973 14.6907216,79.3642408 7.85317751,67.4679674 C3.29481475,59.5371185 0.797008109,42.6501267 0.359757581,16.8069919 Z" id="路径-12" fill="#FCDE82"></path>
                        <g id="路径-11" transform="translate(0.000000, 0.428351)">
                            <mask id="mask-4" fill="white">
                                <use xlink:href="#path-3"></use>
                            </mask>
                            <g id="蒙版"></g>
                            <path d="M-1.42671679,34.1270027 C8.9924749,22.5856705 19.4147112,14.7981405 29.8399921,10.7644127 C41.0254174,6.43657144 59.7327116,14.8884327 64.6058531,17.0586639 C63.0316559,13.3186596 57.2900664,1.21419018 34.8422607,-0.413351888 C18.2277395,-1.61796104 4.63181501,12.0753487 0.241974463,16.3501827 C-3.33968973,20.6526013 -3.89592015,26.578208 -1.42671679,34.1270027 Z" fill="#FFD040" mask="url(#mask-4)"></path>
                        </g>
                    </g>
                    <g id="四肢" transform="translate(28.891753, 107.537605)">
                        <g id="手臂" transform="translate(22.027504, 26.026968) scale(-1, -1) rotate(-25.000000) translate(-22.027504, -26.026968) translate(9.025095, 4.094584)">
                            <mask id="mask-6" fill="white">
                                <use xlink:href="#path-5"></use>
                            </mask>
                            <use id="蒙版" fill="#FFC61A" xlink:href="#path-5"></use>
                            <g id="指头" mask="url(#mask-6)">
                                <g transform="translate(0.068778, 0.277847)">
                                    <mask id="mask-8" fill="white">
                                        <use xlink:href="#path-7"></use>
                                    </mask>
                                    <use id="蒙版" stroke="none" fill="#FFC61A" fill-rule="evenodd" xlink:href="#path-7"></use>
                                    <g id="指头" stroke="none" stroke-width="1" fill="none" fill-rule="evenodd" mask="url(#mask-8)">
                                        <g transform="translate(18.712948, 40.961172) rotate(-15.000000) translate(-18.712948, -40.961172) translate(10.711466, 37.471929)" fill="#A17900" id="椭圆形">
                                            <ellipse cx="7.78608247" cy="2.92857143" rx="3.08505155" ry="2.92857143"></ellipse>
                                            <ellipse cx="3.08505155" cy="3.51428571" rx="3.08505155" ry="2.92857143"></ellipse>
                                            <ellipse cx="12.7809278" cy="2.92857143" rx="3.08505155" ry="2.92857143"></ellipse>
                                        </g>
                                    </g>
                                </g>
                            </g>
                        </g>
                        <g id="手臂" transform="translate(109.473637, 37.884292) scale(-1, -1) rotate(-175.000000) translate(-109.473637, -37.884292) translate(96.471228, 15.951908)">
                            <mask id="mask-10" fill="white">
                                <use xlink:href="#path-9"></use>
                            </mask>
                            <use id="蒙版" fill="#FFC61A" xlink:href="#path-9"></use>
                            <g id="指头" mask="url(#mask-10)">
                                <g transform="translate(0.068778, 0.277847)">
                                    <mask id="mask-12" fill="white">
                                        <use xlink:href="#path-11"></use>
                                    </mask>
                                    <use id="蒙版" stroke="none" fill="#FFC61A" fill-rule="evenodd" xlink:href="#path-11"></use>
                                    <g id="指头" stroke="none" stroke-width="1" fill="none" fill-rule="evenodd" mask="url(#mask-12)">
                                        <g transform="translate(18.712948, 40.961172) rotate(-15.000000) translate(-18.712948, -40.961172) translate(10.711466, 37.471929)" fill="#A17900" id="椭圆形">
                                            <ellipse cx="7.78608247" cy="2.92857143" rx="3.08505155" ry="2.92857143"></ellipse>
                                            <ellipse cx="3.08505155" cy="3.51428571" rx="3.08505155" ry="2.92857143"></ellipse>
                                            <ellipse cx="12.7809278" cy="2.92857143" rx="3.08505155" ry="2.92857143"></ellipse>
                                        </g>
                                    </g>
                                </g>
                            </g>
                        </g>
                        <g id="腿" transform="translate(75.433175, 58.414776)">
                            <path d="M0.669653155,32.6657435 C4.87973679,40.4425459 23.9299624,40.4425459 27.883194,31.689553 C29.2791684,28.5986757 27.1002961,18.0354914 21.346577,1.3872501e-14 L5.81140573,1.3872501e-14 C0.621988242,18.5231941 -1.09192928,29.4117753 0.669653155,32.6657435 Z" id="路径-15" fill="#FFC000"></path>
                            <g id="指头" transform="translate(0.000000, 0.000000)">
                                <mask id="mask-14" fill="white">
                                    <use xlink:href="#path-13"></use>
                                </mask>
                                <g id="蒙版"></g>
                                <g mask="url(#mask-14)" fill="#A17900" id="椭圆形">
                                    <g transform="translate(1.159344, 30.713363)">
                                        <ellipse cx="12.9768041" cy="4.88095238" rx="5.14175258" ry="4.88095238"></ellipse>
                                        <ellipse cx="5.14175258" cy="5.85714286" rx="5.14175258" ry="4.88095238"></ellipse>
                                        <ellipse cx="21.3015464" cy="4.88095238" rx="5.14175258" ry="4.88095238"></ellipse>
                                    </g>
                                </g>
                            </g>
                        </g>
                        <g id="腿" transform="translate(49.177911, 77.854844) scale(-1, 1) translate(-49.177911, -77.854844) translate(34.675224, 58.414776)">
                            <path d="M0.669653155,32.6657435 C4.87973679,40.4425459 23.9299624,40.4425459 27.883194,31.689553 C29.2791684,28.5986757 27.1002961,18.0354914 21.346577,1.3872501e-14 L5.81140573,1.3872501e-14 C0.621988242,18.5231941 -1.09192928,29.4117753 0.669653155,32.6657435 Z" id="路径-15" fill="#FFC000"></path>
                            <g id="指头" transform="translate(0.000000, 0.000000)">
                                <mask id="mask-16" fill="white">
                                    <use xlink:href="#path-15"></use>
                                </mask>
                                <g id="蒙版"></g>
                                <g mask="url(#mask-16)" fill="#A17900" id="椭圆形">
                                    <g transform="translate(1.159344, 30.713363)">
                                        <ellipse cx="12.9768041" cy="4.88095238" rx="5.14175258" ry="4.88095238"></ellipse>
                                        <ellipse cx="5.14175258" cy="5.85714286" rx="5.14175258" ry="4.88095238"></ellipse>
                                        <ellipse cx="21.3015464" cy="4.88095238" rx="5.14175258" ry="4.88095238"></ellipse>
                                    </g>
                                </g>
                            </g>
                        </g>
                    </g>
                    <path d="M98.2037935,185.47619 C122.273729,185.47619 142.031113,176.029963 142.031113,146.916667 C142.031113,117.803371 122.273729,97.1309524 98.2037935,97.1309524 C74.1338577,97.1309524 54.8661647,117.803371 54.8661647,146.916667 C54.8661647,176.029963 74.1338577,185.47619 98.2037935,185.47619 Z" id="椭圆形" fill="#FFE38F"></path>
                    <path d="M100.897093,127.365807 C131.998695,127.365807 157.211526,114.413515 157.211526,83.952381 C157.211526,53.4912471 131.998695,28.797619 100.897093,28.797619 C69.79549,28.797619 44.5826595,53.4912471 44.5826595,83.952381 C44.5826595,114.413515 69.79549,127.365807 100.897093,127.365807 Z" id="椭圆形" fill="#FFC000"></path>
                    <g id="面部" transform="translate(54.376474, 61.500000)">
                        <g id="眼睛" transform="translate(2.448454, 0.000000)">
                            <ellipse id="椭圆形" stroke="#FFECB1" stroke-width="3.81888" fill="#594300" cx="9.54896907" cy="9.51785714" rx="9.54896907" ry="9.51785714"></ellipse>
                            <ellipse id="椭圆形" fill="#FFFFFF" cx="9.54896907" cy="13.325" rx="2.54639175" ry="2.53809524"></ellipse>
                            <ellipse id="椭圆形" fill="#FFFFFF" cx="7.00257732" cy="8.24880952" rx="1.27319588" ry="1.26904762"></ellipse>
                        </g>
                        <g id="眼睛" transform="translate(75.204333, 9.969265) scale(-1, 1) translate(-75.204333, -9.969265) translate(65.202480, 0.000000)">
                            <ellipse id="椭圆形" stroke="#FFECB1" stroke-width="3.81888" fill="#594300" cx="9.54896907" cy="9.51785714" rx="9.54896907" ry="9.51785714"></ellipse>
                            <ellipse id="椭圆形" fill="#FFFFFF" cx="9.54896907" cy="13.325" rx="2.54639175" ry="2.53809524"></ellipse>
                            <ellipse id="椭圆形" fill="#FFFFFF" cx="7.00257732" cy="8.24880952" rx="1.27319588" ry="1.26904762"></ellipse>
                        </g>
                        <path d="M56.7859025,63.8084112 C53.993537,51.1753063 58.7973929,46.2621421 56.7859025,40.4034092 C52.9617378,29.2650221 49.5615398,26.6925891 44.3078997,23.0030686 C45.960105,16.7741 35.6535551,18.7432829 37.9562407,23.0030686 C35.5614647,20.5783134 28.2303679,23.8661496 34.7313227,27.3967063 C37.0115973,32.4958949 41.3707733,33.526937 40.7842971,40.4034092 C39.9200605,50.5366393 34.7313227,55.3406431 31.8298969,61.4161107 C31.8298969,65.0057834 44.3078997,72.4887638 56.7859025,63.8084112 Z" id="路径-13" fill="#FFDD78" transform="translate(44.561856, 43.440476) scale(1, -1) translate(-44.561856, -43.440476) "></path>
                        <ellipse id="椭圆形" fill="#FF82A8" cx="9.54896907" cy="30.2619048" rx="9.54896907" ry="2.92857143"></ellipse>
                        <ellipse id="椭圆形" fill="#FF82A8" cx="77.1262887" cy="30.2619048" rx="9.54896907" ry="2.92857143"></ellipse>
                    </g>
                    <path d="M85.8244121,165.766905 C86.0986389,165.766905 86.4528485,165.749821 86.887041,165.715655 C87.3212334,165.681488 87.7325736,165.613155 88.1210616,165.510655 C88.5095496,165.408155 88.8409069,165.260099 89.1151338,165.066488 C89.3893606,164.872877 89.5150478,164.628016 89.4921956,164.331905 C89.4007867,163.375238 89.337943,162.361627 89.3036647,161.291071 C89.2693863,160.220516 89.240821,159.104405 89.2179688,157.942738 C90.4519894,157.71496 91.7317145,157.50996 93.0571441,157.327738 C94.3825736,157.145516 95.6737248,157.031627 96.9305977,156.986071 C96.9534499,158.170516 96.9477368,159.309405 96.9134585,160.402738 C96.8791801,161.496071 96.8049104,162.509683 96.6906492,163.443571 C96.667797,163.694127 96.7363537,163.899127 96.8963193,164.058571 C97.056285,164.218016 97.2733812,164.343294 97.547608,164.434405 C97.8218348,164.525516 98.1189138,164.58246 98.4388451,164.605238 C98.7587764,164.628016 99.0787076,164.628016 99.3986389,164.605238 C100.038501,164.559683 100.541251,164.445794 100.906886,164.263571 C101.272522,164.081349 101.478192,163.796627 101.523897,163.409405 C101.592453,162.83996 101.632445,162.082599 101.643871,161.137321 C101.655297,160.192044 101.632445,159.155655 101.575314,158.028155 C101.518184,156.900655 101.438201,155.727599 101.335366,154.508988 C101.232531,153.290377 101.112556,152.117321 100.975443,150.989821 C100.83833,149.862321 100.68979,148.820238 100.529824,147.863571 C100.369859,146.906905 100.198467,146.13246 100.015649,145.540238 C99.901388,145.198571 99.6385874,145.00496 99.2272472,144.959405 C98.8159069,144.913849 98.3931406,144.913849 97.9589482,144.959405 C97.3647901,145.027738 96.8791801,145.164405 96.5021183,145.369405 C96.1250564,145.574405 95.9593777,145.813571 96.0050822,146.086905 C96.2107523,147.134683 96.3821441,148.307738 96.5192575,149.606071 C96.6563709,150.904405 96.7592059,152.248294 96.8277626,153.637738 C95.6622987,153.706071 94.4054258,153.81996 93.0571441,153.979405 C91.7088623,154.138849 90.4177111,154.321071 89.1836905,154.526071 C89.1836905,152.886071 89.2065427,151.331488 89.2522472,149.862321 C89.2979516,148.393155 89.3436561,147.146071 89.3893606,146.121071 C89.4122128,145.733849 89.1608382,145.397877 88.6352368,145.113155 C88.1096355,144.828433 87.3897901,144.686071 86.4757008,144.686071 C85.8586905,144.686071 85.2930977,144.782877 84.7789224,144.976488 C84.2647472,145.170099 83.9619551,145.471905 83.8705461,145.881905 C83.756285,146.383016 83.6363107,147.066349 83.5106234,147.931905 C83.3849362,148.79746 83.2592489,149.776905 83.1335616,150.870238 C83.0078743,151.963571 82.8879001,153.119544 82.7736389,154.338155 C82.6593777,155.556766 82.5622557,156.763988 82.4822729,157.959821 C82.4022901,159.155655 82.3451595,160.305933 82.3108812,161.410655 C82.2766028,162.515377 82.2823159,163.477738 82.3280203,164.297738 C82.3508726,164.639405 82.493699,164.907044 82.7564997,165.100655 C83.0193004,165.294266 83.3335186,165.442321 83.6991544,165.544821 C84.0647901,165.647321 84.441852,165.70996 84.8303399,165.732738 C85.2188279,165.755516 85.5501853,165.766905 85.8244121,165.766905 Z M109.373639,151.758571 C110.287728,151.758571 111.013287,151.912321 111.550314,152.219821 C112.087342,152.527321 112.344429,152.863294 112.321577,153.227738 C112.275873,154.389405 112.247307,155.385933 112.235881,156.217321 C112.224455,157.04871 112.230168,157.823155 112.25302,158.540655 C112.275873,159.258155 112.321577,159.964266 112.390134,160.658988 C112.45869,161.35371 112.550099,162.145238 112.664361,163.033571 C112.687213,163.306905 112.567239,163.528988 112.304438,163.699821 C112.041637,163.870655 111.721706,164.007321 111.344644,164.109821 C110.967582,164.212321 110.567668,164.280655 110.144902,164.314821 C109.722135,164.348988 109.373639,164.366071 109.099412,164.366071 C108.825185,164.366071 108.499541,164.354683 108.122479,164.331905 C107.745417,164.309127 107.385495,164.246488 107.042711,164.143988 C106.699928,164.041488 106.397135,163.899127 106.134335,163.716905 C105.871534,163.534683 105.728708,163.284127 105.705855,162.965238 C105.637299,162.213571 105.614446,161.382183 105.637299,160.471071 C105.660151,159.55996 105.705855,158.648849 105.774412,157.737738 C105.842969,156.826627 105.940091,155.955377 106.065778,155.123988 C106.191465,154.292599 106.334292,153.569405 106.494257,152.954405 C106.608519,152.498849 106.934163,152.185655 107.47119,152.014821 C108.008218,151.843988 108.642367,151.758571 109.373639,151.758571 Z M109.750701,143.011905 C110.207745,143.011905 110.647651,143.103016 111.070417,143.285238 C111.493184,143.46746 111.858819,143.718016 112.167324,144.036905 C112.47583,144.355794 112.721491,144.731627 112.904309,145.164405 C113.087127,145.597183 113.178536,146.064127 113.178536,146.565238 C113.178536,147.043571 113.087127,147.499127 112.904309,147.931905 C112.721491,148.364683 112.464404,148.74621 112.133046,149.076488 C111.801689,149.406766 111.418914,149.663016 110.984721,149.845238 C110.550529,150.02746 110.093484,150.118571 109.613587,150.118571 C109.110838,150.118571 108.642367,150.02746 108.208175,149.845238 C107.773983,149.663016 107.396921,149.406766 107.076989,149.076488 C106.757058,148.74621 106.505684,148.364683 106.322866,147.931905 C106.140048,147.499127 106.048639,147.043571 106.048639,146.565238 C106.048639,146.064127 106.151474,145.597183 106.357144,145.164405 C106.562814,144.731627 106.837041,144.355794 107.179824,144.036905 C107.522608,143.718016 107.916809,143.46746 108.362428,143.285238 C108.808046,143.103016 109.270804,143.011905 109.750701,143.011905 Z" id="Hi" fill="#FFF0C2" fill-rule="nonzero"></path>
                    <g id="编组" transform="translate(68.577505, 0.000000)" fill-rule="nonzero">
                        <path d="M3.76495422,12.1797723 L6.14031966,28.1209375 L6.14031966,34.9971867 C6.14031966,38.0319874 9.4749673,40.4970579 13.5633367,40.4970579 L50.686035,40.4970579 C54.7820177,40.4970579 58.109052,38.0263466 58.109052,34.9971867 L58.1242787,27.9686333 L60.4920308,12.1797723 L44.7247814,27.2014718 L42.1362421,27.2014718 L32.1322992,4.95942849 L22.1283563,27.2014718 L19.539817,27.2014718 L3.76495422,12.1797723 Z" id="路径" fill="#FFE54A"></path>
                        <path d="M59.0438778,15.4582078 L60.2831654,15.5997468 C60.3477117,15.6061804 60.4122579,15.6190476 60.4768041,15.6190476 C62.5035557,15.6190476 64.1494845,13.9784815 64.1494845,11.9583333 C64.1494845,9.9381852 62.5035557,8.29761905 60.4768041,8.29761905 C58.4500525,8.29761905 56.8041237,9.9381852 56.8041237,11.9583333 C56.8041237,13.0777785 57.3269482,14.1264541 58.23705,14.8341493 L59.0438778,15.4582078 Z" id="路径" fill="#FF3271"></path>
                        <path d="M3.67268041,8.29761905 C1.64592883,8.29761905 0,9.9381852 0,11.9583333 C0,13.9784815 1.64592883,15.6190476 3.67268041,15.6190476 C3.73722664,15.6190476 3.80177287,15.6061804 3.8663191,15.5997468 L5.10560669,15.4582078 L5.91243455,14.8341493 C6.82253637,14.1264541 7.34536082,13.0777785 7.34536082,11.9583333 C7.3389062,9.9381852 5.69297737,8.29761905 3.67268041,8.29761905 Z" id="路径" fill="#FF3271"></path>
                        <path d="M32.3195876,0 C29.6172522,0 27.4226804,2.13672594 27.4226804,4.7678316 C27.4226804,6.80400572 28.7738481,8.60555896 30.7790843,9.25914572 L32.3195876,9.76190476 L33.860091,9.25914572 C35.8653271,8.60555896 37.2164948,6.80400572 37.2164948,4.7678316 C37.2164948,2.13672594 35.0219231,0 32.3195876,0 Z" id="路径" fill="#FF3271"></path>
                    </g>
                </g>
            </g>
        </g>
        <g id="编组-4" transform="translate(-53.000000, 536.076219)">
            <g id="编组-2" transform="translate(109.892196, 185.690070) scale(-1, 1) rotate(15.000000) translate(-109.892196, -185.690070) translate(27.392196, 98.690070)">
                <ellipse id="椭圆形" stroke-opacity="0.299442745" stroke="#CD9A00" stroke-width="2.304" fill="#FFFFFF" cx="82.2304506" cy="87.0905615" rx="81.024" ry="85.632"></ellipse>
                <g id="编组-3" opacity="0.6" transform="translate(53.952000, 52.312000) scale(-1, 1) translate(-53.952000, -52.312000) translate(13.952000, 34.312000)">
                    <ellipse id="椭圆形" fill="#000000" cx="16.896" cy="5.376" rx="3.84" ry="5.376"></ellipse>
                    <path d="M41.472,35.328 C44.4410828,35.328 46.848,30.1703203 46.848,23.808 C46.848,17.4456797 44.4410828,12.288 41.472,12.288 C38.5029172,12.288 35.328,17.4456797 35.328,23.808 C35.328,30.1703203 38.5029172,35.328 41.472,35.328 Z" id="椭圆形" fill="#FCBD00" transform="translate(41.088000, 23.808000) rotate(90.000000) translate(-41.088000, -23.808000) "></path>
                    <path d="M10.5776088,39.9943403 C13.5466916,39.9943403 16.5472176,35.9303203 16.5472176,29.568 C16.5472176,23.2056797 13.5466916,19.2 10.5776088,19.2 C7.608526,19.2 4.608,23.2056797 4.608,29.568 C4.608,35.9303203 7.608526,39.9943403 10.5776088,39.9943403 Z" id="椭圆形" fill="#FF9090" transform="translate(10.577609, 29.597170) rotate(90.000000) translate(-10.577609, -29.597170) "></path>
                    <path d="M68.9456088,39.9943403 C71.9146916,39.9943403 74.9152176,35.9303203 74.9152176,29.568 C74.9152176,23.2056797 71.9146916,19.2 68.9456088,19.2 C65.976526,19.2 62.976,23.2056797 62.976,29.568 C62.976,35.9303203 65.976526,39.9943403 68.9456088,39.9943403 Z" id="椭圆形" fill="#FF9090" transform="translate(68.945609, 29.597170) rotate(90.000000) translate(-68.945609, -29.597170) "></path>
                    <ellipse id="椭圆形" fill="#000000" cx="62.208" cy="5.376" rx="3.84" ry="5.376"></ellipse>
                </g>
            </g>
            <g id="编组-2" transform="translate(392.461958, 106.500000) rotate(15.000000) translate(-392.461958, -106.500000) translate(309.961958, 19.000000)">
                <ellipse id="椭圆形" stroke-opacity="0.299442745" stroke="#CD9A00" stroke-width="2.304" fill="#FFFFFF" cx="82.2775633" cy="87.7747123" rx="81.024" ry="85.632"></ellipse>
                <g id="编组-3" opacity="0.6" transform="translate(12.043899, 38.758923)">
                    <ellipse id="椭圆形" fill="#000000" cx="16.896" cy="5.376" rx="3.84" ry="5.376"></ellipse>
                    <path d="M41.472,35.328 C44.4410828,35.328 46.848,30.1703203 46.848,23.808 C46.848,17.4456797 44.4410828,12.288 41.472,12.288 C38.5029172,12.288 35.328,17.4456797 35.328,23.808 C35.328,30.1703203 38.5029172,35.328 41.472,35.328 Z" id="椭圆形" fill="#FCBD00" transform="translate(41.088000, 23.808000) rotate(90.000000) translate(-41.088000, -23.808000) "></path>
                    <path d="M10.5776088,39.9943403 C13.5466916,39.9943403 16.5472176,35.9303203 16.5472176,29.568 C16.5472176,23.2056797 13.5466916,19.2 10.5776088,19.2 C7.608526,19.2 4.608,23.2056797 4.608,29.568 C4.608,35.9303203 7.608526,39.9943403 10.5776088,39.9943403 Z" id="椭圆形" fill="#FF9090" transform="translate(10.577609, 29.597170) rotate(90.000000) translate(-10.577609, -29.597170) "></path>
                    <path d="M68.9456088,39.9943403 C71.9146916,39.9943403 74.9152176,35.9303203 74.9152176,29.568 C74.9152176,23.2056797 71.9146916,19.2 68.9456088,19.2 C65.976526,19.2 62.976,23.2056797 62.976,29.568 C62.976,35.9303203 65.976526,39.9943403 68.9456088,39.9943403 Z" id="椭圆形" fill="#FF9090" transform="translate(68.945609, 29.597170) rotate(90.000000) translate(-68.945609, -29.597170) "></path>
                    <ellipse id="椭圆形" fill="#000000" cx="62.208" cy="5.376" rx="3.84" ry="5.376"></ellipse>
                </g>
            </g>
            <g id="编组-2" transform="translate(269.500000, 170.923781) rotate(15.000000) translate(-269.500000, -170.923781) translate(187.000000, 83.923781)">
                <ellipse id="椭圆形" stroke-opacity="0.299442745" stroke="#CD9A00" stroke-width="2.304" fill="#FFFFFF" cx="82.176" cy="86.784" rx="81.024" ry="85.632"></ellipse>
                <g id="编组-3" opacity="0.6" transform="translate(29.952000, 45.312000)">
                    <ellipse id="椭圆形" fill="#000000" cx="16.896" cy="5.376" rx="3.84" ry="5.376"></ellipse>
                    <path d="M41.472,35.328 C44.4410828,35.328 46.848,30.1703203 46.848,23.808 C46.848,17.4456797 44.4410828,12.288 41.472,12.288 C38.5029172,12.288 35.328,17.4456797 35.328,23.808 C35.328,30.1703203 38.5029172,35.328 41.472,35.328 Z" id="椭圆形" fill="#FCBD00" transform="translate(41.088000, 23.808000) rotate(90.000000) translate(-41.088000, -23.808000) "></path>
                    <path d="M10.5776088,39.9943403 C13.5466916,39.9943403 16.5472176,35.9303203 16.5472176,29.568 C16.5472176,23.2056797 13.5466916,19.2 10.5776088,19.2 C7.608526,19.2 4.608,23.2056797 4.608,29.568 C4.608,35.9303203 7.608526,39.9943403 10.5776088,39.9943403 Z" id="椭圆形" fill="#FF9090" transform="translate(10.577609, 29.597170) rotate(90.000000) translate(-10.577609, -29.597170) "></path>
                    <path d="M68.9456088,39.9943403 C71.9146916,39.9943403 74.9152176,35.9303203 74.9152176,29.568 C74.9152176,23.2056797 71.9146916,19.2 68.9456088,19.2 C65.976526,19.2 62.976,23.2056797 62.976,29.568 C62.976,35.9303203 65.976526,39.9943403 68.9456088,39.9943403 Z" id="椭圆形" fill="#FF9090" transform="translate(68.945609, 29.597170) rotate(90.000000) translate(-68.945609, -29.597170) "></path>
                    <ellipse id="椭圆形" fill="#000000" cx="62.208" cy="5.376" rx="3.84" ry="5.376"></ellipse>
                </g>
            </g>
            <g id="编组-2" transform="translate(163.000000, 174.311899)">
                <ellipse id="椭圆形" stroke-opacity="0.299442745" stroke="#CD9A00" stroke-width="2.304" fill="#FFFFFF" cx="82.176" cy="86.784" rx="81.024" ry="85.632"></ellipse>
                <g id="编组-3" opacity="0.6" transform="translate(29.952000, 45.312000)">
                    <ellipse id="椭圆形" fill="#000000" cx="16.896" cy="5.376" rx="3.84" ry="5.376"></ellipse>
                    <path d="M41.472,35.328 C44.4410828,35.328 46.848,30.1703203 46.848,23.808 C46.848,17.4456797 44.4410828,12.288 41.472,12.288 C38.5029172,12.288 35.328,17.4456797 35.328,23.808 C35.328,30.1703203 38.5029172,35.328 41.472,35.328 Z" id="椭圆形" fill="#FCBD00" transform="translate(41.088000, 23.808000) rotate(90.000000) translate(-41.088000, -23.808000) "></path>
                    <path d="M10.5776088,39.9943403 C13.5466916,39.9943403 16.5472176,35.9303203 16.5472176,29.568 C16.5472176,23.2056797 13.5466916,19.2 10.5776088,19.2 C7.608526,19.2 4.608,23.2056797 4.608,29.568 C4.608,35.9303203 7.608526,39.9943403 10.5776088,39.9943403 Z" id="椭圆形" fill="#FF9090" transform="translate(10.577609, 29.597170) rotate(90.000000) translate(-10.577609, -29.597170) "></path>
                    <path d="M68.9456088,39.9943403 C71.9146916,39.9943403 74.9152176,35.9303203 74.9152176,29.568 C74.9152176,23.2056797 71.9146916,19.2 68.9456088,19.2 C65.976526,19.2 62.976,23.2056797 62.976,29.568 C62.976,35.9303203 65.976526,39.9943403 68.9456088,39.9943403 Z" id="椭圆形" fill="#FF9090" transform="translate(68.945609, 29.597170) rotate(90.000000) translate(-68.945609, -29.597170) "></path>
                    <ellipse id="椭圆形" fill="#000000" cx="62.208" cy="5.376" rx="3.84" ry="5.376"></ellipse>
                </g>
            </g>
            <g id="编组-2" transform="translate(102.500000, 275.923781) scale(-1, 1) rotate(15.000000) translate(-102.500000, -275.923781) translate(20.000000, 188.923781)">
                <ellipse id="椭圆形" stroke-opacity="0.299442745" stroke="#CD9A00" stroke-width="2.304" fill="#FFFFFF" cx="82.176" cy="86.784" rx="81.024" ry="85.632"></ellipse>
                <g id="编组-3" opacity="0.6" transform="translate(29.952000, 45.312000)">
                    <ellipse id="椭圆形" fill="#000000" cx="16.896" cy="5.376" rx="3.84" ry="5.376"></ellipse>
                    <path d="M41.472,35.328 C44.4410828,35.328 46.848,30.1703203 46.848,23.808 C46.848,17.4456797 44.4410828,12.288 41.472,12.288 C38.5029172,12.288 35.328,17.4456797 35.328,23.808 C35.328,30.1703203 38.5029172,35.328 41.472,35.328 Z" id="椭圆形" fill="#FCBD00" transform="translate(41.088000, 23.808000) rotate(90.000000) translate(-41.088000, -23.808000) "></path>
                    <path d="M10.5776088,39.9943403 C13.5466916,39.9943403 16.5472176,35.9303203 16.5472176,29.568 C16.5472176,23.2056797 13.5466916,19.2 10.5776088,19.2 C7.608526,19.2 4.608,23.2056797 4.608,29.568 C4.608,35.9303203 7.608526,39.9943403 10.5776088,39.9943403 Z" id="椭圆形" fill="#FF9090" transform="translate(10.577609, 29.597170) rotate(90.000000) translate(-10.577609, -29.597170) "></path>
                    <path d="M68.9456088,39.9943403 C71.9146916,39.9943403 74.9152176,35.9303203 74.9152176,29.568 C74.9152176,23.2056797 71.9146916,19.2 68.9456088,19.2 C65.976526,19.2 62.976,23.2056797 62.976,29.568 C62.976,35.9303203 65.976526,39.9943403 68.9456088,39.9943403 Z" id="椭圆形" fill="#FF9090" transform="translate(68.945609, 29.597170) rotate(90.000000) translate(-68.945609, -29.597170) "></path>
                    <ellipse id="椭圆形" fill="#000000" cx="62.208" cy="5.376" rx="3.84" ry="5.376"></ellipse>
                </g>
            </g>
            <g id="编组-2" transform="translate(296.000000, 155.311899)">
                <ellipse id="椭圆形" stroke-opacity="0.299442745" stroke="#CD9A00" stroke-width="2.304" fill="#FFFFFF" cx="82.176" cy="86.784" rx="81.024" ry="85.632"></ellipse>
                <g id="编组-3" opacity="0.6" transform="translate(29.952000, 45.312000)">
                    <ellipse id="椭圆形" fill="#000000" cx="16.896" cy="5.376" rx="3.84" ry="5.376"></ellipse>
                    <path d="M41.472,35.328 C44.4410828,35.328 46.848,30.1703203 46.848,23.808 C46.848,17.4456797 44.4410828,12.288 41.472,12.288 C38.5029172,12.288 35.328,17.4456797 35.328,23.808 C35.328,30.1703203 38.5029172,35.328 41.472,35.328 Z" id="椭圆形" fill="#FCBD00" transform="translate(41.088000, 23.808000) rotate(90.000000) translate(-41.088000, -23.808000) "></path>
                    <path d="M10.5776088,39.9943403 C13.5466916,39.9943403 16.5472176,35.9303203 16.5472176,29.568 C16.5472176,23.2056797 13.5466916,19.2 10.5776088,19.2 C7.608526,19.2 4.608,23.2056797 4.608,29.568 C4.608,35.9303203 7.608526,39.9943403 10.5776088,39.9943403 Z" id="椭圆形" fill="#FF9090" transform="translate(10.577609, 29.597170) rotate(90.000000) translate(-10.577609, -29.597170) "></path>
                    <path d="M68.9456088,39.9943403 C71.9146916,39.9943403 74.9152176,35.9303203 74.9152176,29.568 C74.9152176,23.2056797 71.9146916,19.2 68.9456088,19.2 C65.976526,19.2 62.976,23.2056797 62.976,29.568 C62.976,35.9303203 65.976526,39.9943403 68.9456088,39.9943403 Z" id="椭圆形" fill="#FF9090" transform="translate(68.945609, 29.597170) rotate(90.000000) translate(-68.945609, -29.597170) "></path>
                    <ellipse id="椭圆形" fill="#000000" cx="62.208" cy="5.376" rx="3.84" ry="5.376"></ellipse>
                </g>
            </g>
        </g>
        <g id="logo-白" transform="translate(66.000000, 239.000000)">
            <g id="编组-2" transform="translate(121.600000, 52.000000) scale(-1, 1) translate(-121.600000, -52.000000) translate(0.600000, 0.000000)">
                <rect id="矩形" x="0" y="0" width="241.6" height="104"></rect>
                <circle id="椭圆形" fill="#FFFFFF" cx="189.6" cy="52" r="52"></circle>
                <g id="编组" transform="translate(154.400000, 14.800000)">
                    <path d="M47.6,14.8128031 C38.7257243,18.3577983 32.4,27.0368922 32.4,37.1315819 C32.4,47.4633797 38.3939403,56.2702709 47.6,59.6515586" id="路径" stroke="#FE9B0E" stroke-width="8" stroke-linecap="round" stroke-linejoin="round" transform="translate(40.000000, 37.232181) scale(-1, 1) translate(-40.000000, -37.232181) "></path>
                    <path d="M44.8,74.8 C60.5101163,69.3995925 70,54.78816 70,37.2321808 C70,20.2567305 59.700739,5.8231016 44.8,0" id="路径" stroke="#FE9B0E" stroke-width="8" stroke-linecap="round" stroke-linejoin="round"></path>
                    <path d="M45.6,26.8 C47.758186,28.9333333 51.0915193,30 55.6,30 C62.3627211,30 65.6,26.8 65.6,26.8" id="路径-2" stroke="#FE9B0E" stroke-width="7.2" stroke-linecap="round"></path>
                    <circle id="椭圆形" fill="#FE9B0E" cx="6" cy="20.8" r="6"></circle>
                    <rect id="矩形" fill="#FE9B0E" x="0" y="38.4" width="12" height="21.2" rx="6"></rect>
                </g>
            </g>
            <g id="编组" transform="translate(125.000000, 24.400000)">
                <path d="M4.74939759,30.4 C5.08674699,30.4 5.52248996,30.378979 6.05662651,30.3369369 C6.59076305,30.2948949 7.09678715,30.2108108 7.5746988,30.0846847 C8.05261044,29.9585586 8.46024096,29.7763764 8.79759036,29.5381381 C9.13493976,29.2998999 9.28955823,28.9985986 9.26144578,28.6342342 C9.14899598,27.4570571 9.07168675,26.2098098 9.02951807,24.8924925 C8.9873494,23.5751752 8.95220884,22.2018018 8.92409639,20.7723724 C10.4421687,20.4920921 12.0164659,20.2398398 13.646988,20.0156156 C15.27751,19.7913914 16.8658635,19.6512513 18.4120482,19.5951952 C18.4401606,21.0526527 18.4331325,22.4540541 18.3909639,23.7993994 C18.3487952,25.1447447 18.2574297,26.391992 18.1168675,27.5411411 C18.088755,27.8494494 18.1730924,28.1017017 18.3698795,28.2978979 C18.5666667,28.4940941 18.8337349,28.6482482 19.1710843,28.7603604 C19.5084337,28.8724725 19.8738956,28.9425425 20.2674699,28.9705706 C20.6610442,28.9985986 21.0546185,28.9985986 21.4481928,28.9705706 C22.2353414,28.9145145 22.8538153,28.7743744 23.3036145,28.5501502 C23.7534137,28.3259259 24.0064257,27.9755756 24.0626506,27.4990991 C24.146988,26.7983984 24.1961847,25.8664665 24.210241,24.7033033 C24.2242972,23.5401401 24.1961847,22.2648649 24.1259036,20.8774775 C24.0556225,19.4900901 23.9572289,18.0466466 23.8307229,16.5471471 C23.7042169,15.0476476 23.5566265,13.6042042 23.3879518,12.2168168 C23.2192771,10.8294294 23.0365462,9.54714715 22.839759,8.36996997 C22.6429719,7.19279279 22.4321285,6.23983984 22.2072289,5.51111111 C22.0666667,5.09069069 21.7433735,4.85245245 21.2373494,4.7963964 C20.7313253,4.74034034 20.211245,4.74034034 19.6771084,4.7963964 C18.9461847,4.88048048 18.3487952,5.04864865 17.8849398,5.3009009 C17.4210843,5.55315315 17.2172691,5.84744745 17.273494,6.18378378 C17.526506,7.47307307 17.7373494,8.91651652 17.9060241,10.5141141 C18.0746988,12.1117117 18.2012048,13.7653654 18.2855422,15.4750751 C16.8518072,15.5591592 15.3056225,15.6992993 13.646988,15.8954955 C11.9883534,16.0916917 10.4,16.3159159 8.88192771,16.5681682 C8.88192771,14.5501502 8.91004016,12.6372372 8.96626506,10.8294294 C9.02248996,9.02162162 9.07871486,7.48708709 9.13493976,6.22582583 C9.16305221,5.74934935 8.85381526,5.33593594 8.20722892,4.98558559 C7.56064257,4.63523524 6.6751004,4.46006006 5.55060241,4.46006006 C4.79156627,4.46006006 4.09578313,4.57917918 3.46325301,4.81741742 C2.83072289,5.05565566 2.45823293,5.42702703 2.34578313,5.93153153 C2.20522088,6.54814815 2.05763052,7.38898899 1.90301205,8.45405405 C1.74839357,9.51911912 1.5937751,10.7243243 1.43915663,12.0696697 C1.28453815,13.415015 1.13694779,14.8374374 0.996385542,16.3369369 C0.855823293,17.8364364 0.736345382,19.3219219 0.637951807,20.7933934 C0.539558233,22.2648649 0.469277108,23.6802803 0.427108434,25.0396396 C0.384939759,26.398999 0.391967871,27.5831832 0.448192771,28.5921922 C0.476305221,29.0126126 0.652008032,29.3419419 0.975301205,29.5801802 C1.29859438,29.8184184 1.68514056,30.0006006 2.13493976,30.1267267 C2.58473896,30.2528529 3.04859438,30.3299299 3.52650602,30.357958 C4.00441767,30.385986 4.41204819,30.4 4.74939759,30.4 Z M33.3819277,28.6762763 C33.7192771,28.6762763 34.147992,28.6552553 34.6680723,28.6132132 C35.1881526,28.5711712 35.6801205,28.4870871 36.1439759,28.360961 C36.6078313,28.2348348 37.0014056,28.0666667 37.3246988,27.8564565 C37.647992,27.6462462 37.7955823,27.372973 37.7674699,27.0366366 C37.6269076,25.9435435 37.5144578,24.9695696 37.4301205,24.1147147 C37.3457831,23.2598599 37.2895582,22.390991 37.2614458,21.5081081 C37.2333333,20.6252252 37.2263052,19.6722723 37.2403614,18.6492492 C37.2544177,17.6262262 37.2895582,16.4 37.3457831,14.9705706 C37.3738956,14.5221221 37.0576305,14.1087087 36.396988,13.7303303 C35.7363454,13.351952 34.8437751,13.1627628 33.7192771,13.1627628 C32.8196787,13.1627628 32.0395582,13.2678679 31.3789157,13.4780781 C30.7182731,13.6882883 30.3176707,14.0736737 30.1771084,14.6342342 C29.9803213,15.390991 29.8046185,16.2808809 29.65,17.3039039 C29.4953815,18.3269269 29.3759036,19.398999 29.2915663,20.5201201 C29.2072289,21.6412412 29.151004,22.7623624 29.1228916,23.8834835 C29.0947791,25.0046046 29.1228916,26.0276276 29.2072289,26.9525526 C29.2353414,27.3449449 29.4110442,27.6532533 29.7343373,27.8774775 C30.0576305,28.1017017 30.4301205,28.2768769 30.8518072,28.403003 C31.273494,28.5291291 31.7162651,28.6062062 32.1801205,28.6342342 C32.6439759,28.6622623 33.0445783,28.6762763 33.3819277,28.6762763 Z" id="Hi" fill="#FFFFFF" fill-rule="nonzero"></path>
                <path d="M34.0144578,11.1447447 C34.6048193,11.1447447 35.1670683,11.0326326 35.7012048,10.8084084 C36.2353414,10.5841842 36.7062249,10.2688689 37.1138554,9.86246246 C37.5214859,9.45605606 37.837751,8.98658659 38.0626506,8.45405405 C38.2875502,7.92152152 38.4,7.36096096 38.4,6.77237237 C38.4,6.15575576 38.2875502,5.58118118 38.0626506,5.04864865 C37.837751,4.51611612 37.5355422,4.05365365 37.1560241,3.66126126 C36.776506,3.26886887 36.3267068,2.96056056 35.8066265,2.73633634 C35.2865462,2.51211211 34.7453815,2.4 34.1831325,2.4 C33.5927711,2.4 33.023494,2.51211211 32.4753012,2.73633634 C31.9271084,2.96056056 31.4421687,3.26886887 31.0204819,3.66126126 C30.5987952,4.05365365 30.2614458,4.51611612 30.0084337,5.04864865 C29.7554217,5.58118118 29.6289157,6.15575576 29.6289157,6.77237237 C29.6289157,7.36096096 29.7413655,7.92152152 29.9662651,8.45405405 C30.1911647,8.98658659 30.5004016,9.45605606 30.8939759,9.86246246 C31.2875502,10.2688689 31.7514056,10.5841842 32.2855422,10.8084084 C32.8196787,11.0326326 33.3959839,11.1447447 34.0144578,11.1447447 Z" id="路径" fill="#FF3271" fill-rule="nonzero"></path>
                <path d="M62.3574181,9.24590761 C62.6596831,9.44883562 62.993434,9.44883562 63.3586708,9.24590761 C63.7239076,9.04297959 64.0261725,8.76395358 64.2654656,8.40882955 C64.5047586,8.05370553 64.6495939,7.6732155 64.6999714,7.26735948 C64.7503489,6.86150345 64.5992164,6.54442843 64.246574,6.31613442 C63.9694978,6.1385724 63.6231526,5.92930289 63.2075383,5.68832587 C62.791924,5.44734886 62.3637153,5.20003034 61.9229123,4.94637033 C61.4821093,4.69271031 61.0476034,4.45807479 60.6193948,4.24246378 C60.1911861,4.02685276 59.8385437,3.84294925 59.5614675,3.69075324 C59.1836363,3.51319123 58.8183995,3.53221573 58.4657571,3.74782675 C58.1131146,3.96343776 57.8360384,4.26148828 57.6345285,4.64197831 C57.4330185,5.02246833 57.3322636,5.40929986 57.3322636,5.80247288 C57.3322636,6.19564591 57.483396,6.46833043 57.785661,6.62052644 C58.5161346,6.97565046 59.3158772,7.40053099 60.1848889,7.89516802 C61.0539006,8.38980505 61.778077,8.84005158 62.3574181,9.24590761 Z M61.4128402,27.8708943 C62.1181251,28.0611393 62.7604381,28.1182128 63.3397792,28.0421148 C63.9191203,27.9660168 64.3095459,27.7123568 64.5110558,27.2811348 C65.1911519,25.8099067 65.8712481,24.4211181 66.5513442,23.114769 C67.2314403,21.8084199 67.9367251,20.5464614 68.6671987,19.3288933 L68.6671987,19.3288933 L76.6394365,19.1386483 C77.0928339,19.1386483 77.4202876,18.9927937 77.6217975,18.7010847 C77.8233075,18.4093757 77.9177653,18.0859592 77.9051709,17.7308352 C77.8925765,17.3757111 77.7792272,17.0522946 77.5651228,16.7605856 C77.3510185,16.4688766 77.0550508,16.3230221 76.6772196,16.3230221 C75.845991,16.2976561 74.9077103,16.2849731 73.8623774,16.2849731 L73.8623774,16.2849731 L70.5185715,16.2849731 C71.2742338,15.092771 72.0487877,13.9195934 72.8422332,12.7654403 C73.6356786,11.6112873 74.46061,10.4254267 75.3170274,9.20785861 C75.5689148,8.82736858 75.6192923,8.39614655 75.4681598,7.91419252 C75.3170274,7.43223849 75.0273568,6.95662596 74.5991481,6.48735493 C74.1709395,6.0180839 73.648273,5.58686187 73.0311488,5.19368884 C72.4140245,4.80051582 71.7843059,4.5151483 71.1419929,4.33758629 C70.4996799,4.16002427 69.8888529,4.12197527 69.3095117,4.22343928 C68.7301706,4.32490328 68.2515844,4.6292953 67.8737533,5.13661534 C66.3624286,7.19126147 64.9707504,9.1127361 63.6987188,10.9010392 C62.4266872,12.6893423 61.1609528,14.560085 59.9015155,16.5132671 C58.8435882,16.5639991 57.8738216,16.6083896 56.9922155,16.6464386 C56.1106094,16.6844876 55.3423527,16.7288781 54.6874453,16.7796101 C54.2592367,16.8303421 53.9632689,17.0142456 53.7995421,17.3313206 C53.6358152,17.6483957 53.5728434,17.9908367 53.6106265,18.3586437 C53.6484096,18.7264507 53.7743533,19.0625503 53.9884577,19.3669423 C54.202562,19.6713343 54.4985298,19.8108473 54.8763609,19.7854813 L54.8763609,19.7854813 L57.8990103,19.6332853 L56.0476376,22.7533035 C55.7957501,23.2098915 55.7957501,23.6918456 56.0476376,24.1991656 C56.299525,24.7064856 56.7088421,25.2074642 57.2755889,25.7021012 C57.8423356,26.1967382 58.497243,26.6343018 59.240311,27.0147918 C59.9833789,27.3952818 60.7075554,27.6806493 61.4128402,27.8708943 Z M59.3725519,14.3064249 C59.6748168,14.509353 59.9959733,14.5156945 60.3360214,14.3254494 C60.6760694,14.1352044 60.96574,13.8752029 61.2050331,13.5454449 C61.4443261,13.2156869 61.5765671,12.8542213 61.6017558,12.4610483 C61.6269445,12.0678753 61.4632177,11.7571418 61.1105753,11.5288478 C60.8334991,11.3512857 60.493451,11.1420162 60.0904311,10.9010392 C59.6874112,10.6600622 59.2654997,10.4190852 58.8246967,10.1781082 C58.3838936,9.93713115 57.955685,9.70883714 57.5400707,9.49322612 C57.1244564,9.27761511 56.7655168,9.1063946 56.4632519,8.97956459 C56.0854207,8.80200258 55.7264811,8.81468558 55.386433,9.01761359 C55.046385,9.22054161 54.7819031,9.49322612 54.5929876,9.83566715 C54.404072,10.1781082 54.3096142,10.5395737 54.3096142,10.9200637 C54.3096142,11.3005537 54.473341,11.5668968 54.8007947,11.7190928 C55.1534371,11.8966548 55.5375655,12.0995828 55.9531798,12.3278768 C56.3687941,12.5561708 56.7781112,12.7844648 57.1811311,13.0127589 C57.584151,13.2410529 57.9745765,13.4693469 58.3524077,13.6976409 C58.7302389,13.9259349 59.0702869,14.1288629 59.3725519,14.3064249 Z M74.6747144,27.0908898 C74.9266018,27.3191838 75.2414611,27.3762573 75.6192923,27.2621103 C75.9971235,27.1479633 76.3308743,26.9450353 76.6205449,26.6533263 C76.9102155,26.3616172 77.0991311,26.0255177 77.1872917,25.6450277 C77.2754523,25.2645377 77.1684001,24.9347796 76.8661352,24.6557536 C76.6142477,24.4274596 76.2427137,24.1294091 75.7515332,23.7616021 C75.2603527,23.393795 74.7376862,23.013305 74.1835338,22.620132 C73.6293815,22.226959 73.1004178,21.8528104 72.5966429,21.4976864 C72.092868,21.1425624 71.7150369,20.8762194 71.4631494,20.6986574 C71.110507,20.4703633 70.7515674,20.4323143 70.3863306,20.5845104 C70.0210938,20.7367064 69.7188288,20.9713419 69.4795357,21.2884169 C69.2402427,21.6054919 69.0954074,21.9479329 69.0450299,22.31574 C68.9946524,22.683547 69.1080018,22.9689145 69.385078,23.1718425 C69.7125316,23.4001365 70.1218487,23.6918456 70.6130293,24.0469696 C71.1042098,24.4020936 71.6079847,24.7699006 72.124354,25.1503907 C72.6407232,25.5308807 73.1256066,25.8923462 73.579004,26.2347872 C74.0324014,26.5772282 74.3976382,26.8625958 74.6747144,27.0908898 Z M95.0917664,11.110606 C94.8493247,10.5793072 94.5297425,10.0528635 94.1330198,9.53127513 C93.6796223,8.93517409 93.1884418,8.43419555 92.6594782,8.02833953 C92.1305145,7.6224835 91.6015509,7.34979898 91.0725873,7.21028597 C90.5436236,7.07077297 90.0902262,7.15321247 89.712395,7.45760449 C89.0322989,8.01565653 88.3081225,8.59907457 87.5398658,9.20785861 C86.7716091,9.81664265 86.0222439,10.4190852 85.2917703,11.0151862 C84.5612967,11.6112873 83.8812006,12.1820223 83.251482,12.7273913 C82.6217634,13.2727604 82.0802054,13.7356899 81.6268079,14.1161799 C81.123033,14.547402 80.8648484,15.0737465 80.852254,15.6952135 C80.8396597,16.3166806 80.984495,16.9444891 81.2867599,17.5786392 C81.5890248,18.2127892 82.0109363,18.8215732 82.5524943,19.4049913 C83.0940523,19.9884093 83.6607991,20.4640218 84.2527346,20.8318289 C84.8446701,21.1996359 85.417714,21.4342714 85.9718664,21.5357354 C86.5260188,21.6371994 86.9794162,21.5103694 87.3320587,21.1552454 C87.5839461,20.9015854 87.8736167,20.6225594 88.2010703,20.3181673 C88.528524,20.0137753 88.8937608,19.6840173 89.2967807,19.3288933 C89.2464033,19.9123113 89.2086201,20.5147538 89.1834314,21.1362209 C89.1582427,21.7576879 89.1330539,22.3474475 89.1078652,22.9054995 C89.0826764,23.4635515 89.070082,23.9708716 89.070082,24.4274596 L89.070082,24.4274596 L89.070082,25.5689297 C89.070082,25.8733217 89.2275117,26.0762497 89.542371,26.1777137 C89.8572303,26.2791777 90.1972784,26.3172267 90.5625152,26.2918607 C90.927752,26.2664947 91.2552057,26.1840552 91.5448762,26.0445422 C91.8345468,25.9050292 91.9667877,25.7338087 91.941599,25.5308807 C91.8912215,25.1757567 91.8471412,24.6494121 91.809358,23.9518471 C91.7715749,23.254282 91.7526834,22.493302 91.7526834,21.6689069 L91.7526834,21.6689069 L91.7531498,18.9018989 C91.7556376,18.1803771 91.7680765,17.5490455 91.7904665,17.0079041 L91.7904665,17.0079041 L95.0398146,14.0781309 C95.190947,13.9259349 95.291702,13.7991049 95.3420795,13.6976409 C95.4680232,14.2810589 95.663236,14.7820375 95.9277178,15.2005765 C96.1921996,15.6191155 96.5385449,15.866434 96.9667536,15.942532 C97.017131,15.9678981 97.1052916,15.9805811 97.2312354,15.9805811 C96.9541592,16.2088751 96.6959745,16.4181446 96.4566815,16.6083896 C96.2173884,16.7986346 95.9969869,16.9698551 95.7954769,17.1220511 C95.4428345,17.3757111 95.2854048,17.7118107 95.323188,18.1303497 C95.3609711,18.5488887 95.5184007,18.9166957 95.7954769,19.2337708 C96.0725531,19.5508458 96.4314927,19.7664568 96.8722958,19.8806038 C97.3130988,19.9947508 97.7476046,19.8742623 98.1758133,19.5191383 C98.6795882,19.0879163 99.1770659,18.6566942 99.6682464,18.2254722 C100.159427,17.7942502 100.631716,17.3503451 101.085113,16.8937571 C101.311812,17.0205871 101.513322,17.1474171 101.689643,17.2742471 C101.261435,17.6547372 100.814334,18.0352272 100.348343,18.4157172 C99.8823508,18.7962072 99.4226562,19.1640143 98.9692588,19.5191383 C98.5158614,19.8742623 98.0876527,20.2040203 97.6846328,20.5084123 C97.2816129,20.8128044 96.9289704,21.0664644 96.6267055,21.2693924 C96.3244406,21.4723204 96.1733081,21.7513464 96.1733081,22.1064705 C96.1733081,22.4615945 96.2803603,22.7786695 96.4944646,23.0576955 C96.7085689,23.3367215 96.9856451,23.545991 97.3256932,23.6855041 C97.6657412,23.8250171 98.0120865,23.7806266 98.3647289,23.5523325 C98.6418051,23.3747705 98.9944475,23.1211105 99.4226562,22.7913525 C99.8508648,22.4615945 100.310559,22.087446 100.80174,21.6689069 C101.29292,21.2503679 101.784101,20.8128044 102.275282,20.3562163 C102.766462,19.8996283 103.213562,19.4810893 103.616582,19.1005993 C103.692148,19.2020633 103.75512,19.3035273 103.805498,19.4049913 C103.855875,19.5064553 103.906253,19.6206023 103.95663,19.7474323 C103.452855,20.2040203 102.867217,20.7113404 102.199715,21.2693924 C101.532214,21.8274444 100.858415,22.3728135 100.178319,22.9054995 C99.4982224,23.4381855 98.843315,23.9264811 98.2135964,24.3703861 C97.5838778,24.8142911 97.0423198,25.1630737 96.5889224,25.4167337 C96.2614687,25.5942957 96.0851475,25.8669802 96.0599587,26.2347872 C96.03477,26.6025943 96.1166334,26.9450353 96.305549,27.2621103 C96.4944646,27.5791853 96.777838,27.8138208 97.1556691,27.9660168 C97.5335003,28.1182128 97.961709,28.0801638 98.4402951,27.8518698 C98.7173713,27.6996738 99.0700137,27.4840628 99.4982224,27.2050368 C99.9264311,26.9260108 100.392423,26.5962527 100.896198,26.2157627 C101.399973,25.8352727 101.916342,25.4294167 102.445306,24.9981946 C102.974269,24.5669726 103.490638,24.1230676 103.994413,23.6664796 C103.66696,24.3767276 103.188374,25.0425851 102.558655,25.6640522 C101.928936,26.2855192 101.135491,26.8245468 100.178319,27.2811348 C99.8256761,27.4333308 99.6367605,27.7060153 99.6115718,28.0991883 C99.586383,28.4923614 99.6556521,28.8791929 99.8193789,29.2596829 C99.9831057,29.640173 100.234993,29.9509065 100.575041,30.1918835 C100.915089,30.4328605 101.274029,30.464568 101.65186,30.287006 C103.314317,29.5513919 104.655618,28.6128499 105.675762,27.4713798 C106.695906,26.3299097 107.3823,25.0996587 107.734942,23.7806266 L107.734942,23.7806266 L109.548532,25.3025867 C110.153061,25.8099067 110.656836,26.2664947 111.059856,26.6723508 C111.261366,26.8752788 111.519551,26.9260108 111.83441,26.8245468 C112.14927,26.7230828 112.432643,26.5328377 112.68453,26.2538117 C112.936418,25.9747857 113.100145,25.6513692 113.175711,25.2835622 C113.251277,24.9157551 113.150522,24.5796556 112.873446,24.2752636 C112.671936,24.0469696 112.401157,23.7806266 112.061109,23.4762345 C111.721061,23.1718425 111.349527,22.861109 110.946507,22.544034 C110.543487,22.226959 110.121576,21.9035424 109.680773,21.5737844 C109.239969,21.2440264 108.818058,20.9269514 108.415038,20.6225594 C108.792869,20.4196313 109.195889,20.1849958 109.624098,19.9186528 C110.052306,19.6523098 110.467921,19.3923083 110.870941,19.1386483 C111.273961,18.8849882 111.626603,18.6440112 111.928868,18.4157172 C112.231133,18.1874232 112.445237,17.9971782 112.571181,17.8449822 C112.772691,17.5913222 112.848257,17.2996131 112.79788,16.9698551 C112.747502,16.6400971 112.621558,16.3483881 112.420049,16.0947281 C112.218539,15.841068 111.966651,15.663506 111.664386,15.562042 C111.362121,15.460578 111.059856,15.51131 110.757591,15.714238 C110.623251,15.7987914 110.466521,15.8974369 110.287401,16.0101747 L110.001929,16.1898506 C109.699664,16.3800956 109.37221,16.5766821 109.019568,16.7796101 C108.666926,16.9825381 108.307986,17.1918076 107.942749,17.4074186 C107.577512,17.6230297 107.243761,17.8196162 106.941497,17.9971782 C106.538477,17.3630281 106.085079,16.8049761 105.581304,16.3230221 C106.311778,16.2722901 106.985577,16.2152166 107.602701,16.1518016 C108.219825,16.0883866 108.755086,15.9932641 109.208484,15.866434 C109.712258,15.76497 110.115278,15.371797 110.417543,14.686915 C110.719808,14.0020329 110.883535,13.2473944 110.908724,12.4229993 C110.933913,11.5986043 110.814266,10.7995752 110.549784,10.0259122 C110.285302,9.25224911 109.850797,8.71322157 109.246267,8.40882955 C109.044757,8.30736555 108.805464,8.21858454 108.528387,8.14248654 C108.251311,8.06638853 107.936452,8.00297353 107.583809,7.95224152 C107.911263,7.41955549 108.087584,6.89321095 108.112773,6.37320792 C108.137962,5.85320489 107.974235,5.37759235 107.621593,4.94637033 C107.26895,4.5151483 106.708501,4.16002427 105.940244,3.88099826 C105.171987,3.60197224 104.145546,3.44977623 102.86092,3.42441023 L102.86092,3.42441023 L103.163185,3.0058712 C103.490638,2.49855116 103.528422,2.01025563 103.276534,1.5409846 C103.024647,1.07171357 102.65941,0.697565046 102.180824,0.418539028 C101.702238,0.139513009 101.185868,0 100.631716,0 C100.077564,0 99.6619492,0.202928013 99.3848731,0.60878404 C98.8055319,1.36976409 98.201002,2.18147614 97.5712834,3.0439202 C96.9415648,3.90636426 96.1984968,4.97173633 95.3420795,6.24003641 C95.0650033,6.67125844 95.0335174,7.10882197 95.2476217,7.552727 C95.461726,7.99663203 95.7828825,8.38346355 96.2110912,8.71322157 C95.934015,8.96688159 95.7073163,9.32200561 95.5309951,9.77859364 C95.3546739,10.2351817 95.2413245,10.7551847 95.190947,11.3386027 L95.190947,11.3380592 L95.0917664,11.110606 Z M99.9138367,7.87614352 L101.122896,6.0117424 C102.357145,5.96101039 103.194671,6.0688159 103.635474,6.33515892 C104.076277,6.60150193 103.994413,7.06443146 103.389883,7.72394751 C102.785354,7.72394751 102.193418,7.73663051 101.614077,7.76199651 C101.034736,7.78736251 100.467989,7.82541151 99.9138367,7.87614352 L99.9138367,7.87614352 Z M99.7627042,13.5834939 C99.6367605,13.5834939 99.4730337,13.5581279 99.2715237,13.5073959 C98.9188813,13.4566639 98.6669938,13.2791019 98.5158614,12.9747099 C98.3647289,12.6703178 98.2891627,12.3405598 98.2891627,11.9854358 C98.2891627,11.6303118 98.3584317,11.2942122 98.4969698,10.9771372 C98.6355079,10.6600622 98.843315,10.4634757 99.1203912,10.3873777 C99.3974674,10.3112797 99.9012423,10.2478647 100.631716,10.1971327 C101.36219,10.1464007 102.143041,10.1210347 102.974269,10.1210347 C102.017097,11.2371387 100.946575,12.3912918 99.7627042,13.5834939 Z M103.95663,13.7356899 C104.410028,13.2030039 104.850831,12.6512933 105.279039,12.0805583 C105.707248,11.5098233 106.135457,10.9200637 106.563665,10.3112797 C106.714798,10.3620117 106.847039,10.3937192 106.960388,10.4064022 C107.073737,10.4190852 107.18079,10.4507927 107.281545,10.5015247 C107.483055,10.5776227 107.653079,10.7678677 107.791617,11.0722597 C107.930155,11.3766517 108.005721,11.7000683 108.018315,12.0425093 C108.03091,12.3849503 107.974235,12.7020253 107.848291,12.9937344 C107.722348,13.2854434 107.495649,13.4566639 107.168195,13.5073959 C106.815553,13.5834939 106.355858,13.6342259 105.789111,13.6595919 C105.222365,13.6849579 104.611538,13.7103239 103.95663,13.7356899 Z" id="头像" fill="#FFFFFF" fill-rule="nonzero"></path>
                <text id="让头像有趣一点" font-family="PingFangSC-Regular, PingFang SC" font-size="14.4" font-weight="normal" letter-spacing="2.4" fill="#FFFFFF">
                    <tspan x="0" y="50.2">让头像有趣一点</tspan>
                </text>
            </g>
        </g>
    </g>
</svg>